<svg width="1440" height="961" viewBox="0 0 1440 961" fill="none" xmlns="http://www.w3.org/2000/svg">
<rect width="1440" height="961" fill="url(#paint0_linear_618_871)"/>
<line x1="5.49956" y1="-2.38403e-08" x2="5.4996" y2="961" stroke="#E7E7E7"/>
<line x1="70.4996" y1="-2.38403e-08" x2="70.4996" y2="961" stroke="#E7E7E7"/>
<line x1="135.5" y1="-2.38403e-08" x2="135.5" y2="961" stroke="#E7E7E7"/>
<line x1="200.5" y1="-2.38403e-08" x2="200.5" y2="961" stroke="#E7E7E7"/>
<line x1="265.5" y1="-2.38403e-08" x2="265.5" y2="961" stroke="#E7E7E7"/>
<line x1="330.5" y1="-2.38403e-08" x2="330.5" y2="961" stroke="#E7E7E7"/>
<line x1="395.5" y1="-2.38403e-08" x2="395.5" y2="961" stroke="#E7E7E7"/>
<line x1="460.5" y1="-2.38403e-08" x2="460.5" y2="961" stroke="#E7E7E7"/>
<line x1="525.5" y1="-2.38403e-08" x2="525.5" y2="961" stroke="#E7E7E7"/>
<line x1="590.5" y1="-2.38403e-08" x2="590.5" y2="961" stroke="#E7E7E7"/>
<line x1="655.5" y1="-2.38403e-08" x2="655.5" y2="961" stroke="#E7E7E7"/>
<line x1="720.5" y1="-2.38403e-08" x2="720.5" y2="961" stroke="#E7E7E7"/>
<line x1="785.5" y1="-2.38403e-08" x2="785.5" y2="961" stroke="#E7E7E7"/>
<line x1="850.5" y1="-2.38403e-08" x2="850.5" y2="961" stroke="#E7E7E7"/>
<line x1="915.5" y1="-2.38403e-08" x2="915.5" y2="961" stroke="#E7E7E7"/>
<line x1="980.5" y1="-2.38403e-08" x2="980.5" y2="961" stroke="#E7E7E7"/>
<line x1="1045.5" y1="-2.38403e-08" x2="1045.5" y2="961" stroke="#E7E7E7"/>
<line x1="1110.5" y1="-2.38403e-08" x2="1110.5" y2="961" stroke="#E7E7E7"/>
<line x1="1175.5" y1="-2.38403e-08" x2="1175.5" y2="961" stroke="#E7E7E7"/>
<line x1="1240.5" y1="-2.38403e-08" x2="1240.5" y2="961" stroke="#E7E7E7"/>
<line x1="1305.5" y1="-2.38403e-08" x2="1305.5" y2="961" stroke="#E7E7E7"/>
<line x1="1370.5" y1="-2.38403e-08" x2="1370.5" y2="961" stroke="#E7E7E7"/>
<line x1="1435.5" y1="-2.38403e-08" x2="1435.5" y2="961" stroke="#E7E7E7"/>
<g opacity="0.2" clip-path="url(#clip0_618_871)">
<path d="M736.562 569C721.717 569 707.896 555.273 697.628 530.378C687.541 505.964 682 473.483 682 438.985C682 404.487 687.541 372.036 697.628 347.592C707.896 322.697 721.717 309 736.562 309C751.407 309 765.259 322.697 775.527 347.592C785.614 372.036 791.155 404.487 791.155 438.985C791.155 473.483 785.614 505.964 775.527 530.378C765.259 555.273 751.407 569 736.562 569ZM736.562 312.191C708.257 312.191 685.192 369.086 685.192 438.985C685.192 508.884 708.257 565.779 736.562 565.779C764.867 565.779 787.933 508.914 787.933 438.985C787.933 369.056 764.898 312.191 736.562 312.191Z" fill="white"/>
<path d="M655.925 518.127C635.419 518.127 621.326 512.377 615.665 501.45C608.83 488.265 615.244 469.36 633.732 448.198C652.221 427.035 679.653 406.806 711.932 390.129C744.212 373.452 776.974 362.645 804.436 359.785C832.379 356.775 851.56 362.494 858.396 375.68C865.231 388.865 858.817 407.769 840.329 428.932C821.84 450.094 794.408 470.323 762.219 487.001C730.03 503.678 697.057 514.485 669.776 517.375C664.778 517.766 660.231 518.127 655.925 518.127ZM818.197 362.223C813.69 362.235 809.187 362.486 804.707 362.976C777.606 365.806 745.206 376.462 713.348 393.079C648.005 426.915 605.457 474.929 618.496 500.065C631.534 525.201 695.311 518.127 760.653 484.261C825.965 450.395 868.513 402.381 855.475 377.245C850.446 367.251 837.378 362.223 818.197 362.223Z" fill="white"/>
<path d="M813.786 517.325C809.962 517.325 805.897 517.115 801.742 516.723C774.942 514.165 742.933 503.839 711.617 487.584C680.301 471.328 653.321 451.189 635.766 430.749C618.211 410.309 611.857 391.194 618.693 378.008C625.528 364.823 644.318 359.013 671.629 361.602C698.458 364.131 730.467 374.486 761.783 390.712C793.1 406.938 819.989 427.137 837.514 447.577C855.039 468.017 861.604 487.102 854.618 500.287C848.836 511.425 834.533 517.325 813.786 517.325ZM713.002 484.754C743.957 500.799 775.544 511.004 801.952 513.502C827.879 515.971 845.584 510.763 851.757 498.812C864.795 473.676 823.783 426.565 760.308 393.451C696.832 360.338 634.561 354.317 621.523 379.363C608.485 404.409 649.527 451.851 713.002 484.754Z" fill="white"/>
<path d="M755.416 457.099C765.095 447.19 764.906 431.314 754.995 421.639C745.084 411.963 729.203 412.151 719.525 422.06C709.846 431.968 710.035 447.844 719.946 457.52C729.857 467.195 745.737 467.007 755.416 457.099Z" fill="url(#paint1_radial_618_871)"/>
<path d="M746.067 439.031C746.067 440.817 745.537 442.563 744.545 444.048C743.552 445.533 742.141 446.691 740.49 447.374C738.84 448.058 737.023 448.237 735.271 447.888C733.519 447.54 731.909 446.68 730.646 445.417C729.382 444.154 728.522 442.545 728.174 440.793C727.825 439.041 728.004 437.225 728.688 435.575C729.371 433.925 730.529 432.514 732.015 431.522C733.5 430.53 735.247 430 737.034 430C739.429 430 741.727 430.951 743.421 432.645C745.115 434.339 746.067 436.636 746.067 439.031Z" fill="url(#paint2_radial_618_871)"/>
<path d="M737.124 448.242C742.163 448.242 746.248 444.159 746.248 439.121C746.248 434.084 742.163 430 737.124 430C732.085 430 728 434.084 728 439.121C728 444.159 732.085 448.242 737.124 448.242Z" fill="url(#paint3_radial_618_871)"/>
<path d="M746.067 439.031C746.067 440.817 745.537 442.563 744.545 444.048C743.552 445.533 742.141 446.691 740.49 447.374C738.84 448.058 737.023 448.237 735.271 447.888C733.519 447.54 731.909 446.68 730.646 445.417C729.382 444.154 728.522 442.545 728.174 440.793C727.825 439.041 728.004 437.225 728.688 435.575C729.371 433.925 730.529 432.514 732.015 431.522C733.5 430.53 735.247 430 737.034 430C739.429 430 741.727 430.952 743.421 432.645C745.115 434.339 746.067 436.636 746.067 439.031Z" fill="url(#paint4_radial_618_871)"/>
</g>
<g opacity="0.11" clip-path="url(#clip1_618_871)">
<path d="M1151.37 177.548L1151.35 179.197L1199.63 179.805L1199.65 178.157L1151.37 177.548Z" fill="url(#paint5_linear_618_871)"/>
<path d="M1163.19 164.062L1163.17 165.711L1188.16 166.026L1188.18 164.377L1163.19 164.062Z" fill="url(#paint6_linear_618_871)"/>
<path d="M1135.01 217.86L1134.99 219.508L1214.98 220.517L1215 218.868L1135.01 217.86Z" fill="url(#paint7_linear_618_871)"/>
<path d="M1141.05 240.432L1141.03 242.081L1208.36 242.929L1208.38 241.281L1141.05 240.432Z" fill="url(#paint8_linear_618_871)"/>
<path d="M1150.36 258.559L1150.33 260.207L1198.61 260.816L1198.63 259.167L1150.36 258.559Z" fill="url(#paint9_linear_618_871)"/>
<path d="M1161.84 272.338L1161.82 273.987L1186.81 274.302L1186.83 272.653L1161.84 272.338Z" fill="url(#paint10_linear_618_871)"/>
<path d="M1140.27 194.06L1140.25 195.709L1207.58 196.384L1207.6 194.735L1140.27 194.06Z" fill="url(#paint11_linear_618_871)"/>
<path d="M1161.89 268.126C1162.89 268.139 1163.86 268.449 1164.68 269.016C1165.5 269.583 1166.13 270.383 1166.5 271.313C1166.87 272.243 1166.95 273.261 1166.74 274.239C1166.53 275.216 1166.03 276.109 1165.32 276.803C1164.6 277.498 1163.69 277.962 1162.71 278.138C1161.73 278.313 1160.72 278.192 1159.8 277.79C1158.89 277.387 1158.12 276.722 1157.58 275.877C1157.05 275.033 1156.78 274.048 1156.8 273.048C1156.83 271.721 1157.38 270.46 1158.34 269.539C1159.29 268.617 1160.57 268.11 1161.89 268.126Z" fill="url(#paint12_radial_618_871)"/>
<path d="M1150.42 253.779C1151.53 253.792 1152.61 254.134 1153.53 254.763C1154.44 255.392 1155.15 256.28 1155.56 257.313C1155.98 258.347 1156.07 259.48 1155.84 260.569C1155.61 261.658 1155.07 262.654 1154.27 263.43C1153.48 264.207 1152.47 264.73 1151.38 264.932C1150.29 265.134 1149.16 265.007 1148.14 264.566C1147.12 264.126 1146.26 263.392 1145.66 262.457C1145.05 261.522 1144.74 260.429 1144.76 259.316C1144.78 257.829 1145.39 256.412 1146.45 255.374C1147.51 254.336 1148.94 253.763 1150.42 253.779Z" fill="url(#paint13_radial_618_871)"/>
<path d="M1141.14 234.166C1142.54 234.183 1143.9 234.615 1145.05 235.408C1146.2 236.201 1147.09 237.319 1147.61 238.62C1148.13 239.922 1148.25 241.348 1147.96 242.72C1147.67 244.091 1146.99 245.346 1145.99 246.325C1144.99 247.304 1143.72 247.963 1142.35 248.22C1140.97 248.477 1139.55 248.319 1138.27 247.767C1136.99 247.215 1135.89 246.293 1135.13 245.119C1134.37 243.944 1133.97 242.569 1133.99 241.167C1134 240.236 1134.19 239.317 1134.56 238.461C1134.93 237.606 1135.46 236.831 1136.12 236.18C1136.78 235.53 1137.57 235.018 1138.43 234.672C1139.29 234.326 1140.21 234.154 1141.14 234.166Z" fill="url(#paint14_radial_618_871)"/>
<path d="M1138.94 228.448C1143.38 227.102 1145.89 222.399 1144.55 217.943C1143.21 213.487 1138.52 210.966 1134.08 212.312C1129.64 213.658 1127.13 218.362 1128.47 222.818C1129.81 227.273 1134.5 229.794 1138.94 228.448Z" fill="url(#paint15_radial_618_871)"/>
<path d="M1163.13 169.935C1164.12 169.947 1165.1 169.663 1165.93 169.119C1166.77 168.575 1167.42 167.795 1167.81 166.878C1168.2 165.961 1168.31 164.948 1168.13 163.967C1167.95 162.986 1167.48 162.081 1166.79 161.367C1166.09 160.653 1165.2 160.161 1164.23 159.955C1163.26 159.748 1162.25 159.836 1161.32 160.206C1160.4 160.577 1159.61 161.214 1159.04 162.037C1158.48 162.859 1158.17 163.831 1158.16 164.829C1158.15 165.491 1158.28 166.149 1158.52 166.764C1158.77 167.379 1159.13 167.94 1159.59 168.414C1160.05 168.888 1160.6 169.267 1161.21 169.528C1161.82 169.789 1162.47 169.927 1163.13 169.935Z" fill="url(#paint16_radial_618_871)"/>
<path d="M1151.29 183.999C1152.4 184.016 1153.49 183.702 1154.42 183.098C1155.36 182.493 1156.09 181.624 1156.53 180.602C1156.97 179.58 1157.09 178.45 1156.89 177.355C1156.69 176.261 1156.17 175.251 1155.39 174.453C1154.62 173.656 1153.63 173.107 1152.54 172.876C1151.46 172.645 1150.33 172.742 1149.3 173.156C1148.27 173.569 1147.38 174.28 1146.76 175.199C1146.13 176.117 1145.79 177.201 1145.78 178.314C1145.76 179.801 1146.33 181.232 1147.37 182.297C1148.4 183.361 1149.81 183.973 1151.29 183.999Z" fill="url(#paint17_radial_618_871)"/>
<path d="M1141.58 203.367C1142.98 203.384 1144.35 202.985 1145.52 202.22C1146.69 201.456 1147.61 200.36 1148.16 199.071C1148.71 197.783 1148.87 196.36 1148.61 194.982C1148.35 193.604 1147.7 192.333 1146.72 191.33C1145.75 190.326 1144.5 189.636 1143.13 189.346C1141.76 189.056 1140.34 189.179 1139.04 189.699C1137.75 190.22 1136.63 191.115 1135.84 192.271C1135.05 193.427 1134.62 194.792 1134.6 196.193C1134.59 197.124 1134.76 198.048 1135.11 198.912C1135.45 199.776 1135.96 200.564 1136.61 201.23C1137.26 201.896 1138.03 202.428 1138.88 202.795C1139.74 203.161 1140.65 203.356 1141.58 203.367Z" fill="url(#paint18_radial_618_871)"/>
<path d="M1186.88 268.446C1185.89 268.422 1184.91 268.696 1184.06 269.232C1183.22 269.769 1182.56 270.544 1182.16 271.46C1181.76 272.376 1181.64 273.391 1181.81 274.376C1181.99 275.36 1182.45 276.271 1183.14 276.991C1183.83 277.711 1184.72 278.209 1185.7 278.42C1186.67 278.632 1187.69 278.549 1188.61 278.18C1189.54 277.812 1190.34 277.175 1190.9 276.351C1191.47 275.527 1191.78 274.553 1191.79 273.553C1191.81 272.224 1191.3 270.942 1190.39 269.985C1189.47 269.029 1188.21 268.476 1186.88 268.446Z" fill="url(#paint19_radial_618_871)"/>
<path d="M1198.71 254.444C1197.6 254.429 1196.51 254.745 1195.58 255.351C1194.65 255.958 1193.92 256.827 1193.48 257.849C1193.05 258.872 1192.92 260.002 1193.12 261.096C1193.33 262.189 1193.85 263.198 1194.62 263.995C1195.4 264.791 1196.39 265.338 1197.47 265.568C1198.56 265.798 1199.69 265.7 1200.72 265.286C1201.75 264.872 1202.63 264.161 1203.26 263.243C1203.88 262.325 1204.22 261.241 1204.24 260.128C1204.25 258.639 1203.68 257.204 1202.64 256.138C1201.61 255.073 1200.19 254.463 1198.71 254.444Z" fill="url(#paint20_radial_618_871)"/>
<path d="M1208.47 235.015C1207.07 234.998 1205.7 235.397 1204.53 236.161C1203.36 236.926 1202.44 238.022 1201.89 239.31C1201.34 240.599 1201.18 242.022 1201.44 243.4C1201.69 244.778 1202.35 246.049 1203.33 247.052C1204.3 248.055 1205.55 248.745 1206.92 249.036C1208.29 249.326 1209.71 249.203 1211.01 248.682C1212.3 248.162 1213.42 247.267 1214.21 246.111C1215 244.955 1215.43 243.59 1215.45 242.188C1215.46 241.257 1215.29 240.334 1214.94 239.469C1214.6 238.605 1214.09 237.817 1213.44 237.151C1212.79 236.485 1212.02 235.954 1211.17 235.587C1210.31 235.22 1209.4 235.026 1208.47 235.015Z" fill="url(#paint21_radial_618_871)"/>
<path d="M1217.34 227.783C1221.78 226.471 1224.31 221.797 1223.01 217.345C1221.7 212.893 1217.04 210.349 1212.6 211.662C1208.17 212.974 1205.63 217.648 1206.94 222.1C1208.25 226.551 1212.9 229.096 1217.34 227.783Z" fill="url(#paint22_radial_618_871)"/>
<path d="M1188.11 170.255C1187.12 170.243 1186.15 169.935 1185.33 169.371C1184.51 168.806 1183.87 168.01 1183.5 167.084C1183.13 166.158 1183.05 165.142 1183.25 164.166C1183.46 163.19 1183.95 162.297 1184.66 161.6C1185.37 160.903 1186.27 160.434 1187.25 160.251C1188.23 160.068 1189.24 160.18 1190.15 160.573C1191.07 160.966 1191.84 161.622 1192.39 162.459C1192.93 163.295 1193.21 164.274 1193.2 165.272C1193.19 165.934 1193.05 166.589 1192.79 167.198C1192.53 167.807 1192.16 168.358 1191.68 168.821C1191.21 169.284 1190.65 169.649 1190.04 169.895C1189.43 170.141 1188.77 170.263 1188.11 170.255Z" fill="url(#paint23_radial_618_871)"/>
<path d="M1199.58 184.602C1198.47 184.587 1197.39 184.243 1196.47 183.612C1195.56 182.982 1194.85 182.093 1194.44 181.06C1194.03 180.026 1193.94 178.893 1194.17 177.805C1194.4 176.717 1194.95 175.722 1195.74 174.947C1196.54 174.172 1197.55 173.65 1198.64 173.449C1199.73 173.248 1200.85 173.376 1201.87 173.816C1202.89 174.257 1203.76 174.991 1204.36 175.926C1204.96 176.86 1205.27 177.953 1205.26 179.065C1205.25 179.803 1205.09 180.533 1204.8 181.212C1204.51 181.89 1204.09 182.505 1203.56 183.019C1203.04 183.534 1202.41 183.939 1201.73 184.21C1201.04 184.482 1200.31 184.615 1199.58 184.602Z" fill="url(#paint24_radial_618_871)"/>
<path d="M1208.86 204.216C1207.46 204.199 1206.1 203.766 1204.95 202.973C1203.8 202.181 1202.91 201.063 1202.39 199.761C1201.87 198.46 1201.75 197.033 1202.04 195.662C1202.33 194.29 1203.01 193.036 1204.01 192.057C1205.01 191.078 1206.28 190.418 1207.65 190.161C1209.03 189.905 1210.45 190.062 1211.73 190.614C1213.01 191.166 1214.11 192.088 1214.87 193.263C1215.63 194.438 1216.03 195.813 1216.01 197.214C1216 198.145 1215.81 199.065 1215.44 199.92C1215.07 200.776 1214.54 201.551 1213.88 202.201C1213.22 202.851 1212.43 203.364 1211.57 203.709C1210.71 204.055 1209.79 204.227 1208.86 204.216Z" fill="url(#paint25_radial_618_871)"/>
<path d="M1174.24 280.111C1173.41 280.099 1172.59 280.335 1171.89 280.789C1171.19 281.243 1170.64 281.895 1170.31 282.662C1169.99 283.43 1169.89 284.278 1170.04 285.099C1170.19 285.92 1170.58 286.678 1171.17 287.276C1171.75 287.875 1172.49 288.286 1173.31 288.46C1174.12 288.633 1174.97 288.56 1175.74 288.25C1176.51 287.94 1177.18 287.407 1177.65 286.718C1178.12 286.03 1178.38 285.216 1178.38 284.381C1178.4 283.264 1177.97 282.187 1177.19 281.387C1176.41 280.586 1175.35 280.127 1174.24 280.111Z" fill="url(#paint26_radial_618_871)"/>
<path d="M1175.76 158.27C1174.93 158.26 1174.12 158.003 1173.43 157.531C1172.75 157.06 1172.21 156.394 1171.9 155.619C1171.6 154.845 1171.52 153.995 1171.69 153.178C1171.87 152.362 1172.28 151.614 1172.87 151.031C1173.47 150.448 1174.22 150.055 1175.04 149.901C1175.85 149.748 1176.7 149.841 1177.46 150.17C1178.23 150.498 1178.88 151.047 1179.33 151.746C1179.79 152.445 1180.03 153.264 1180.02 154.099C1180.01 154.653 1179.89 155.201 1179.68 155.71C1179.46 156.22 1179.14 156.682 1178.75 157.069C1178.35 157.456 1177.89 157.762 1177.37 157.968C1176.86 158.174 1176.31 158.277 1175.76 158.27Z" fill="url(#paint27_radial_618_871)"/>
<path d="M1136.65 87.5771L1136.63 89.2258L1216.62 90.2344L1216.64 88.5857L1136.65 87.5771Z" fill="url(#paint28_linear_618_871)"/>
<path d="M1142.7 110.137L1142.68 111.786L1210 112.635L1210.03 110.986L1142.7 110.137Z" fill="url(#paint29_linear_618_871)"/>
<path d="M1151.99 128.289L1151.97 129.937L1200.25 130.546L1200.27 128.897L1151.99 128.289Z" fill="url(#paint30_linear_618_871)"/>
<path d="M1163.47 142.056L1163.45 143.704L1188.44 144.019L1188.46 142.371L1163.47 142.056Z" fill="url(#paint31_linear_618_871)"/>
<path d="M1163.53 137.844C1164.53 137.857 1165.5 138.164 1166.32 138.729C1167.14 139.293 1167.77 140.089 1168.14 141.015C1168.51 141.942 1168.6 142.957 1168.39 143.933C1168.18 144.91 1167.7 145.803 1166.98 146.499C1166.27 147.196 1165.37 147.666 1164.39 147.849C1163.41 148.031 1162.41 147.919 1161.49 147.526C1160.58 147.133 1159.8 146.477 1159.26 145.641C1158.71 144.804 1158.43 143.825 1158.44 142.828C1158.45 142.165 1158.59 141.511 1158.85 140.902C1159.11 140.293 1159.49 139.741 1159.96 139.278C1160.43 138.816 1160.99 138.451 1161.6 138.205C1162.22 137.959 1162.87 137.836 1163.53 137.844Z" fill="url(#paint32_radial_618_871)"/>
<path d="M1152.05 123.497C1153.16 123.509 1154.24 123.851 1155.16 124.48C1156.07 125.109 1156.78 125.995 1157.19 127.028C1157.61 128.061 1157.71 129.193 1157.48 130.282C1157.25 131.371 1156.7 132.367 1155.91 133.144C1155.11 133.921 1154.11 134.445 1153.02 134.648C1151.93 134.852 1150.8 134.726 1149.78 134.288C1148.76 133.849 1147.9 133.117 1147.29 132.184C1146.69 131.251 1146.37 130.159 1146.39 129.046C1146.41 127.557 1147.02 126.137 1148.08 125.096C1149.14 124.056 1150.57 123.481 1152.05 123.497Z" fill="url(#paint33_radial_618_871)"/>
<path d="M1142.81 103.884C1144.2 103.903 1145.56 104.337 1146.71 105.132C1147.86 105.926 1148.75 107.045 1149.27 108.347C1149.79 109.648 1149.91 111.074 1149.62 112.445C1149.33 113.816 1148.64 115.069 1147.64 116.047C1146.64 117.025 1145.37 117.683 1144 117.939C1142.62 118.195 1141.21 118.036 1139.92 117.484C1138.64 116.931 1137.55 116.01 1136.79 114.835C1136.03 113.661 1135.63 112.286 1135.65 110.885C1135.66 109.953 1135.85 109.033 1136.22 108.176C1136.58 107.32 1137.11 106.544 1137.78 105.894C1138.44 105.244 1139.23 104.731 1140.09 104.386C1140.96 104.041 1141.88 103.87 1142.81 103.884Z" fill="url(#paint34_radial_618_871)"/>
<path d="M1136.75 80C1138.4 80.022 1140.02 80.536 1141.38 81.4771C1142.75 82.4182 1143.8 83.7441 1144.42 85.2872C1145.03 86.8304 1145.18 88.5215 1144.83 90.1469C1144.49 91.7724 1143.67 93.2592 1142.49 94.4194C1141.3 95.5796 1139.8 96.3612 1138.17 96.6654C1136.54 96.9696 1134.86 96.7828 1133.34 96.1285C1131.82 95.4742 1130.52 94.3818 1129.62 92.9894C1128.72 91.5971 1128.24 89.9672 1128.26 88.3057C1128.28 87.201 1128.5 86.1096 1128.94 85.0941C1129.37 84.0786 1130 83.1587 1130.79 82.3873C1131.58 81.6159 1132.51 81.008 1133.53 80.5983C1134.55 80.1887 1135.65 79.9854 1136.75 80Z" fill="url(#paint35_radial_618_871)"/>
<path d="M1188.51 138.164C1187.52 138.14 1186.54 138.414 1185.7 138.95C1184.85 139.487 1184.19 140.262 1183.79 141.178C1183.39 142.094 1183.27 143.109 1183.44 144.093C1183.62 145.078 1184.08 145.989 1184.77 146.709C1185.46 147.429 1186.35 147.927 1187.33 148.138C1188.3 148.35 1189.32 148.266 1190.24 147.898C1191.17 147.529 1191.97 146.893 1192.53 146.069C1193.1 145.245 1193.41 144.271 1193.42 143.271C1193.44 141.943 1192.93 140.663 1192.01 139.707C1191.09 138.751 1189.84 138.197 1188.51 138.164Z" fill="url(#paint36_radial_618_871)"/>
<path d="M1200.34 124.112C1199.23 124.098 1198.14 124.414 1197.21 125.02C1196.28 125.626 1195.55 126.496 1195.11 127.518C1194.68 128.541 1194.55 129.67 1194.75 130.764C1194.96 131.858 1195.48 132.867 1196.25 133.663C1197.03 134.459 1198.02 135.007 1199.11 135.237C1200.19 135.467 1201.32 135.369 1202.35 134.955C1203.38 134.541 1204.26 133.83 1204.89 132.912C1205.52 131.994 1205.86 130.91 1205.87 129.797C1205.88 129.059 1205.75 128.326 1205.47 127.639C1205.2 126.953 1204.8 126.328 1204.28 125.8C1203.77 125.271 1203.15 124.85 1202.48 124.561C1201.8 124.271 1201.07 124.119 1200.34 124.112Z" fill="url(#paint37_radial_618_871)"/>
<path d="M1216.88 113.365C1217.74 109.548 1215.36 105.752 1211.55 104.886C1207.75 104.02 1203.96 106.412 1203.1 110.23C1202.24 114.047 1204.62 117.844 1208.43 118.71C1212.23 119.575 1216.02 117.183 1216.88 113.365Z" fill="url(#paint38_radial_618_871)"/>
<path d="M1217.8 97.7643C1222.37 97.1072 1225.56 92.8497 1224.9 88.255C1224.25 83.6603 1220 80.4683 1215.42 81.1255C1210.84 81.7827 1207.66 86.0402 1208.32 90.6349C1208.97 95.2296 1213.22 98.4215 1217.8 97.7643Z" fill="url(#paint39_radial_618_871)"/>
<path d="M1175.92 149.854C1175.09 149.842 1174.27 150.078 1173.57 150.532C1172.87 150.987 1172.32 151.64 1171.99 152.408C1171.66 153.176 1171.57 154.024 1171.72 154.846C1171.88 155.667 1172.27 156.425 1172.85 157.023C1173.43 157.621 1174.18 158.032 1174.99 158.204C1175.81 158.376 1176.66 158.301 1177.43 157.989C1178.2 157.678 1178.86 157.142 1179.33 156.452C1179.8 155.762 1180.06 154.947 1180.06 154.111C1180.07 152.996 1179.64 151.922 1178.87 151.125C1178.09 150.327 1177.03 149.87 1175.92 149.854Z" fill="url(#paint40_radial_618_871)"/>
<path d="M1133.37 347.756L1133.35 349.405L1213.35 350.413L1213.37 348.765L1133.37 347.756Z" fill="url(#paint41_linear_618_871)"/>
<path d="M1207.23 334.129C1205.83 334.112 1204.47 333.679 1203.32 332.886C1202.17 332.093 1201.28 330.976 1200.76 329.674C1200.24 328.373 1200.12 326.946 1200.4 325.575C1200.69 324.203 1201.38 322.949 1202.38 321.97C1203.38 320.991 1204.65 320.331 1206.02 320.074C1207.4 319.818 1208.81 319.975 1210.1 320.527C1211.38 321.079 1212.47 322.001 1213.24 323.176C1214 324.351 1214.4 325.726 1214.38 327.127C1214.37 328.058 1214.17 328.978 1213.81 329.833C1213.44 330.689 1212.91 331.464 1212.25 332.114C1211.59 332.764 1210.8 333.277 1209.94 333.622C1209.08 333.968 1208.16 334.14 1207.23 334.129Z" fill="url(#paint42_radial_618_871)"/>
<path d="M1133.28 357.003C1134.93 357.023 1136.56 356.549 1137.95 355.642C1139.33 354.735 1140.42 353.436 1141.08 351.909C1141.73 350.382 1141.91 348.695 1141.61 347.061C1141.31 345.428 1140.53 343.921 1139.37 342.731C1138.22 341.542 1136.73 340.723 1135.11 340.378C1133.49 340.034 1131.81 340.179 1130.27 340.795C1128.73 341.411 1127.41 342.47 1126.47 343.84C1125.53 345.209 1125.02 346.827 1125 348.488C1124.99 349.593 1125.19 350.69 1125.6 351.716C1126 352.742 1126.61 353.677 1127.38 354.468C1128.15 355.259 1129.07 355.89 1130.08 356.325C1131.09 356.76 1132.18 356.99 1133.28 357.003Z" fill="url(#paint43_radial_618_871)"/>
<path d="M1139.95 325.307L1139.93 326.955L1207.26 327.804L1207.28 326.155L1139.95 325.307Z" fill="url(#paint44_linear_618_871)"/>
<path d="M1149.74 307.457L1149.72 309.105L1198 309.714L1198.02 308.066L1149.74 307.457Z" fill="url(#paint45_linear_618_871)"/>
<path d="M1161.57 293.971L1161.55 295.62L1186.54 295.935L1186.56 294.286L1161.57 293.971Z" fill="url(#paint46_linear_618_871)"/>
<path d="M1214.6 357.89C1219.18 357.229 1222.36 352.969 1221.7 348.375C1221.04 343.781 1216.79 340.593 1212.21 341.254C1207.63 341.915 1204.46 346.175 1205.11 350.769C1205.77 355.363 1210.02 358.552 1214.6 357.89Z" fill="url(#paint47_radial_618_871)"/>
<path d="M1207.24 334.129C1208.64 334.146 1210.01 333.747 1211.18 332.982C1212.35 332.218 1213.27 331.122 1213.82 329.833C1214.37 328.545 1214.53 327.122 1214.27 325.744C1214.02 324.366 1213.36 323.095 1212.38 322.092C1211.41 321.088 1210.16 320.398 1208.79 320.108C1207.42 319.818 1206 319.941 1204.7 320.461C1203.41 320.982 1202.29 321.877 1201.5 323.033C1200.71 324.189 1200.28 325.554 1200.26 326.955C1200.25 327.886 1200.42 328.81 1200.77 329.674C1201.11 330.538 1201.62 331.326 1202.27 331.992C1202.92 332.658 1203.69 333.19 1204.55 333.557C1205.4 333.923 1206.31 334.118 1207.24 334.129Z" fill="url(#paint48_radial_618_871)"/>
<path d="M1139.9 333.28C1141.3 333.297 1142.67 332.898 1143.84 332.133C1145.01 331.369 1145.93 330.273 1146.48 328.984C1147.03 327.696 1147.19 326.273 1146.93 324.895C1146.67 323.517 1146.02 322.246 1145.04 321.243C1144.07 320.239 1142.82 319.549 1141.45 319.259C1140.08 318.969 1138.66 319.092 1137.36 319.612C1136.07 320.133 1134.95 321.028 1134.16 322.184C1133.37 323.34 1132.94 324.705 1132.92 326.106C1132.91 327.037 1133.08 327.961 1133.43 328.825C1133.77 329.689 1134.28 330.477 1134.93 331.143C1135.58 331.809 1136.35 332.341 1137.2 332.708C1138.06 333.074 1138.97 333.269 1139.9 333.28Z" fill="url(#paint49_radial_618_871)"/>
<path d="M1186.48 300.168C1185.48 300.155 1184.51 299.846 1183.69 299.279C1182.87 298.711 1182.23 297.912 1181.87 296.982C1181.5 296.052 1181.42 295.033 1181.63 294.056C1181.84 293.078 1182.33 292.185 1183.05 291.491C1183.77 290.797 1184.68 290.332 1185.66 290.157C1186.64 289.981 1187.65 290.102 1188.56 290.505C1189.48 290.907 1190.25 291.573 1190.79 292.417C1191.32 293.261 1191.59 294.246 1191.57 295.246C1191.54 296.573 1190.98 297.834 1190.03 298.756C1189.08 299.677 1187.8 300.185 1186.48 300.168Z" fill="url(#paint50_radial_618_871)"/>
<path d="M1197.99 314.515C1196.89 314.5 1195.81 314.156 1194.89 313.526C1193.98 312.896 1193.27 312.009 1192.86 310.976C1192.45 309.943 1192.36 308.811 1192.59 307.723C1192.82 306.635 1193.36 305.64 1194.16 304.864C1194.95 304.088 1195.96 303.566 1197.05 303.363C1198.14 303.161 1199.26 303.287 1200.28 303.726C1201.3 304.165 1202.17 304.897 1202.77 305.83C1203.37 306.762 1203.69 307.854 1203.67 308.966C1203.67 309.705 1203.51 310.435 1203.22 311.114C1202.93 311.793 1202.51 312.409 1201.98 312.924C1201.46 313.44 1200.83 313.846 1200.15 314.119C1199.46 314.392 1198.73 314.527 1197.99 314.515Z" fill="url(#paint51_radial_618_871)"/>
<path d="M1161.5 299.848C1162.49 299.86 1163.47 299.576 1164.3 299.032C1165.13 298.488 1165.79 297.708 1166.18 296.79C1166.57 295.873 1166.68 294.86 1166.5 293.879C1166.32 292.899 1165.85 291.994 1165.16 291.28C1164.46 290.566 1163.57 290.074 1162.6 289.868C1161.63 289.661 1160.61 289.749 1159.69 290.119C1158.77 290.49 1157.97 291.127 1157.41 291.949C1156.85 292.772 1156.54 293.744 1156.53 294.741C1156.52 295.404 1156.64 296.062 1156.89 296.677C1157.13 297.292 1157.5 297.853 1157.96 298.327C1158.42 298.801 1158.97 299.179 1159.58 299.44C1160.18 299.701 1160.84 299.84 1161.5 299.848Z" fill="url(#paint52_radial_618_871)"/>
<path d="M1149.74 313.912C1152.83 313.912 1155.34 311.395 1155.34 308.289C1155.34 305.183 1152.83 302.666 1149.74 302.666C1146.64 302.666 1144.13 305.183 1144.13 308.289C1144.13 311.395 1146.64 313.912 1149.74 313.912Z" fill="url(#paint53_radial_618_871)"/>
</g>
<g opacity="0.11" clip-path="url(#clip2_618_871)">
<path d="M1216.37 780.548L1216.35 782.197L1264.63 782.805L1264.65 781.157L1216.37 780.548Z" fill="url(#paint54_linear_618_871)"/>
<path d="M1228.19 767.062L1228.17 768.711L1253.16 769.026L1253.18 767.377L1228.19 767.062Z" fill="url(#paint55_linear_618_871)"/>
<path d="M1200.01 820.86L1199.99 822.508L1279.98 823.517L1280 821.868L1200.01 820.86Z" fill="url(#paint56_linear_618_871)"/>
<path d="M1206.05 843.432L1206.03 845.081L1273.36 845.929L1273.38 844.281L1206.05 843.432Z" fill="url(#paint57_linear_618_871)"/>
<path d="M1215.36 861.559L1215.33 863.207L1263.61 863.816L1263.63 862.167L1215.36 861.559Z" fill="url(#paint58_linear_618_871)"/>
<path d="M1226.84 875.338L1226.82 876.987L1251.81 877.302L1251.83 875.653L1226.84 875.338Z" fill="url(#paint59_linear_618_871)"/>
<path d="M1205.27 797.06L1205.25 798.709L1272.58 799.384L1272.6 797.735L1205.27 797.06Z" fill="url(#paint60_linear_618_871)"/>
<path d="M1226.89 871.126C1227.89 871.139 1228.86 871.449 1229.68 872.016C1230.5 872.583 1231.13 873.383 1231.5 874.313C1231.87 875.243 1231.95 876.261 1231.74 877.239C1231.53 878.216 1231.03 879.109 1230.32 879.803C1229.6 880.498 1228.69 880.962 1227.71 881.138C1226.73 881.313 1225.72 881.192 1224.8 880.79C1223.89 880.387 1223.12 879.722 1222.58 878.877C1222.05 878.033 1221.78 877.048 1221.8 876.048C1221.83 874.721 1222.38 873.46 1223.34 872.539C1224.29 871.617 1225.57 871.11 1226.89 871.126Z" fill="url(#paint61_radial_618_871)"/>
<path d="M1215.42 856.779C1216.53 856.792 1217.61 857.134 1218.53 857.763C1219.44 858.392 1220.15 859.28 1220.56 860.313C1220.98 861.347 1221.07 862.48 1220.84 863.569C1220.61 864.658 1220.07 865.654 1219.27 866.43C1218.48 867.207 1217.47 867.73 1216.38 867.932C1215.29 868.134 1214.16 868.007 1213.14 867.566C1212.12 867.126 1211.26 866.392 1210.66 865.457C1210.05 864.522 1209.74 863.429 1209.76 862.316C1209.78 860.829 1210.39 859.412 1211.45 858.374C1212.51 857.336 1213.94 856.763 1215.42 856.779Z" fill="url(#paint62_radial_618_871)"/>
<path d="M1206.14 837.166C1207.54 837.183 1208.9 837.615 1210.05 838.408C1211.2 839.201 1212.09 840.319 1212.61 841.62C1213.13 842.922 1213.25 844.348 1212.96 845.72C1212.67 847.091 1211.99 848.346 1210.99 849.325C1209.99 850.304 1208.72 850.963 1207.35 851.22C1205.97 851.477 1204.55 851.319 1203.27 850.767C1201.99 850.215 1200.89 849.293 1200.13 848.119C1199.37 846.944 1198.97 845.569 1198.99 844.167C1199 843.236 1199.19 842.317 1199.56 841.461C1199.93 840.606 1200.46 839.831 1201.12 839.18C1201.78 838.53 1202.57 838.018 1203.43 837.672C1204.29 837.326 1205.21 837.154 1206.14 837.166Z" fill="url(#paint63_radial_618_871)"/>
<path d="M1203.94 831.448C1208.38 830.102 1210.89 825.399 1209.55 820.943C1208.21 816.487 1203.52 813.966 1199.08 815.312C1194.64 816.658 1192.13 821.362 1193.47 825.818C1194.81 830.273 1199.5 832.794 1203.94 831.448Z" fill="url(#paint64_radial_618_871)"/>
<path d="M1228.13 772.935C1229.12 772.947 1230.1 772.663 1230.93 772.119C1231.77 771.575 1232.42 770.795 1232.81 769.878C1233.2 768.961 1233.31 767.948 1233.13 766.967C1232.95 765.986 1232.48 765.081 1231.79 764.367C1231.09 763.653 1230.2 763.161 1229.23 762.955C1228.26 762.748 1227.25 762.836 1226.32 763.206C1225.4 763.577 1224.61 764.214 1224.04 765.037C1223.48 765.859 1223.17 766.831 1223.16 767.829C1223.15 768.491 1223.28 769.149 1223.52 769.764C1223.77 770.379 1224.13 770.94 1224.59 771.414C1225.05 771.888 1225.6 772.267 1226.21 772.528C1226.82 772.789 1227.47 772.927 1228.13 772.935Z" fill="url(#paint65_radial_618_871)"/>
<path d="M1216.29 786.999C1217.4 787.016 1218.49 786.702 1219.42 786.098C1220.36 785.493 1221.09 784.624 1221.53 783.602C1221.97 782.58 1222.09 781.45 1221.89 780.355C1221.69 779.261 1221.17 778.251 1220.39 777.453C1219.62 776.656 1218.63 776.107 1217.54 775.876C1216.46 775.645 1215.33 775.742 1214.3 776.156C1213.27 776.569 1212.38 777.28 1211.76 778.199C1211.13 779.117 1210.79 780.201 1210.78 781.314C1210.76 782.801 1211.33 784.232 1212.37 785.297C1213.4 786.361 1214.81 786.973 1216.29 786.999Z" fill="url(#paint66_radial_618_871)"/>
<path d="M1206.58 806.367C1207.98 806.384 1209.35 805.985 1210.52 805.22C1211.69 804.456 1212.61 803.36 1213.16 802.071C1213.71 800.783 1213.87 799.36 1213.61 797.982C1213.35 796.604 1212.7 795.333 1211.72 794.33C1210.75 793.326 1209.5 792.636 1208.13 792.346C1206.76 792.056 1205.34 792.179 1204.04 792.699C1202.75 793.22 1201.63 794.115 1200.84 795.271C1200.05 796.427 1199.62 797.792 1199.6 799.193C1199.59 800.124 1199.76 801.048 1200.11 801.912C1200.45 802.776 1200.96 803.564 1201.61 804.23C1202.26 804.896 1203.03 805.428 1203.88 805.795C1204.74 806.161 1205.65 806.356 1206.58 806.367Z" fill="url(#paint67_radial_618_871)"/>
<path d="M1251.88 871.446C1250.89 871.422 1249.91 871.696 1249.06 872.232C1248.22 872.769 1247.56 873.544 1247.16 874.46C1246.76 875.376 1246.64 876.391 1246.81 877.376C1246.99 878.36 1247.45 879.271 1248.14 879.991C1248.83 880.711 1249.72 881.209 1250.7 881.42C1251.67 881.632 1252.69 881.549 1253.61 881.18C1254.54 880.812 1255.34 880.175 1255.9 879.351C1256.47 878.527 1256.78 877.553 1256.79 876.553C1256.81 875.224 1256.3 873.942 1255.39 872.985C1254.47 872.029 1253.21 871.476 1251.88 871.446Z" fill="url(#paint68_radial_618_871)"/>
<path d="M1263.71 857.444C1262.6 857.429 1261.51 857.745 1260.58 858.351C1259.65 858.958 1258.92 859.827 1258.48 860.849C1258.05 861.872 1257.92 863.002 1258.12 864.096C1258.33 865.189 1258.85 866.198 1259.62 866.995C1260.4 867.791 1261.39 868.338 1262.47 868.568C1263.56 868.798 1264.69 868.7 1265.72 868.286C1266.75 867.872 1267.63 867.161 1268.26 866.243C1268.88 865.325 1269.22 864.241 1269.24 863.128C1269.25 861.639 1268.68 860.204 1267.64 859.138C1266.61 858.073 1265.19 857.463 1263.71 857.444Z" fill="url(#paint69_radial_618_871)"/>
<path d="M1273.47 838.015C1272.07 837.998 1270.7 838.397 1269.53 839.161C1268.36 839.926 1267.44 841.022 1266.89 842.31C1266.34 843.599 1266.18 845.022 1266.44 846.4C1266.69 847.778 1267.35 849.049 1268.33 850.052C1269.3 851.055 1270.55 851.745 1271.92 852.036C1273.29 852.326 1274.71 852.203 1276.01 851.682C1277.3 851.162 1278.42 850.267 1279.21 849.111C1280 847.955 1280.43 846.59 1280.45 845.188C1280.46 844.257 1280.29 843.334 1279.94 842.469C1279.6 841.605 1279.09 840.817 1278.44 840.151C1277.79 839.485 1277.02 838.954 1276.17 838.587C1275.31 838.22 1274.4 838.026 1273.47 838.015Z" fill="url(#paint70_radial_618_871)"/>
<path d="M1282.34 830.783C1286.78 829.471 1289.31 824.797 1288.01 820.345C1286.7 815.893 1282.04 813.349 1277.6 814.662C1273.17 815.974 1270.63 820.648 1271.94 825.1C1273.25 829.551 1277.9 832.096 1282.34 830.783Z" fill="url(#paint71_radial_618_871)"/>
<path d="M1253.11 773.255C1252.12 773.243 1251.15 772.935 1250.33 772.371C1249.51 771.806 1248.87 771.01 1248.5 770.084C1248.13 769.158 1248.05 768.142 1248.25 767.166C1248.46 766.19 1248.95 765.297 1249.66 764.6C1250.37 763.903 1251.27 763.434 1252.25 763.251C1253.23 763.068 1254.24 763.18 1255.15 763.573C1256.07 763.966 1256.84 764.622 1257.39 765.459C1257.93 766.295 1258.21 767.274 1258.2 768.272C1258.19 768.934 1258.05 769.589 1257.79 770.198C1257.53 770.807 1257.16 771.358 1256.68 771.821C1256.21 772.284 1255.65 772.649 1255.04 772.895C1254.43 773.141 1253.77 773.263 1253.11 773.255Z" fill="url(#paint72_radial_618_871)"/>
<path d="M1264.58 787.602C1263.47 787.587 1262.39 787.243 1261.47 786.612C1260.56 785.982 1259.85 785.093 1259.44 784.06C1259.03 783.026 1258.94 781.893 1259.17 780.805C1259.4 779.717 1259.95 778.722 1260.74 777.947C1261.54 777.172 1262.55 776.65 1263.64 776.449C1264.73 776.248 1265.85 776.376 1266.87 776.816C1267.89 777.257 1268.76 777.991 1269.36 778.926C1269.96 779.86 1270.27 780.953 1270.26 782.065C1270.25 782.803 1270.09 783.533 1269.8 784.212C1269.51 784.89 1269.09 785.505 1268.56 786.019C1268.04 786.534 1267.41 786.939 1266.73 787.21C1266.04 787.482 1265.31 787.615 1264.58 787.602Z" fill="url(#paint73_radial_618_871)"/>
<path d="M1273.86 807.216C1272.46 807.199 1271.1 806.766 1269.95 805.973C1268.8 805.181 1267.91 804.063 1267.39 802.761C1266.87 801.46 1266.75 800.033 1267.04 798.662C1267.33 797.29 1268.01 796.036 1269.01 795.057C1270.01 794.078 1271.28 793.418 1272.65 793.161C1274.03 792.905 1275.45 793.062 1276.73 793.614C1278.01 794.166 1279.11 795.088 1279.87 796.263C1280.63 797.438 1281.03 798.813 1281.01 800.214C1281 801.145 1280.81 802.065 1280.44 802.92C1280.07 803.776 1279.54 804.551 1278.88 805.201C1278.22 805.851 1277.43 806.364 1276.57 806.709C1275.71 807.055 1274.79 807.227 1273.86 807.216Z" fill="url(#paint74_radial_618_871)"/>
<path d="M1239.24 883.111C1238.41 883.099 1237.59 883.335 1236.89 883.789C1236.19 884.243 1235.64 884.895 1235.31 885.662C1234.99 886.43 1234.89 887.278 1235.04 888.099C1235.19 888.92 1235.58 889.678 1236.17 890.276C1236.75 890.875 1237.49 891.286 1238.31 891.46C1239.12 891.633 1239.97 891.56 1240.74 891.25C1241.51 890.94 1242.18 890.407 1242.65 889.718C1243.12 889.03 1243.38 888.216 1243.38 887.381C1243.4 886.264 1242.97 885.187 1242.19 884.387C1241.41 883.586 1240.35 883.127 1239.24 883.111Z" fill="url(#paint75_radial_618_871)"/>
<path d="M1240.76 761.27C1239.93 761.26 1239.12 761.003 1238.43 760.531C1237.75 760.06 1237.21 759.394 1236.9 758.619C1236.6 757.845 1236.52 756.995 1236.69 756.178C1236.87 755.362 1237.28 754.614 1237.87 754.031C1238.47 753.448 1239.22 753.055 1240.04 752.901C1240.85 752.748 1241.7 752.841 1242.46 753.17C1243.23 753.498 1243.88 754.047 1244.33 754.746C1244.79 755.445 1245.03 756.264 1245.02 757.099C1245.01 757.653 1244.89 758.201 1244.68 758.71C1244.46 759.22 1244.14 759.682 1243.75 760.069C1243.35 760.456 1242.89 760.762 1242.37 760.968C1241.86 761.174 1241.31 761.277 1240.76 761.27Z" fill="url(#paint76_radial_618_871)"/>
<path d="M1201.65 690.577L1201.63 692.226L1281.62 693.234L1281.64 691.586L1201.65 690.577Z" fill="url(#paint77_linear_618_871)"/>
<path d="M1207.7 713.137L1207.68 714.786L1275 715.635L1275.03 713.986L1207.7 713.137Z" fill="url(#paint78_linear_618_871)"/>
<path d="M1216.99 731.289L1216.97 732.937L1265.25 733.546L1265.27 731.897L1216.99 731.289Z" fill="url(#paint79_linear_618_871)"/>
<path d="M1228.47 745.056L1228.45 746.704L1253.44 747.019L1253.46 745.371L1228.47 745.056Z" fill="url(#paint80_linear_618_871)"/>
<path d="M1228.53 740.844C1229.53 740.857 1230.5 741.164 1231.32 741.729C1232.14 742.293 1232.77 743.089 1233.14 744.015C1233.51 744.942 1233.6 745.957 1233.39 746.933C1233.18 747.91 1232.7 748.803 1231.98 749.499C1231.27 750.196 1230.37 750.666 1229.39 750.849C1228.41 751.031 1227.41 750.919 1226.49 750.526C1225.58 750.133 1224.8 749.477 1224.26 748.641C1223.71 747.804 1223.43 746.825 1223.44 745.828C1223.45 745.165 1223.59 744.511 1223.85 743.902C1224.11 743.293 1224.49 742.741 1224.96 742.278C1225.43 741.816 1225.99 741.451 1226.6 741.205C1227.22 740.959 1227.87 740.836 1228.53 740.844Z" fill="url(#paint81_radial_618_871)"/>
<path d="M1217.05 726.497C1218.16 726.509 1219.24 726.851 1220.16 727.48C1221.07 728.109 1221.78 728.995 1222.19 730.028C1222.61 731.061 1222.71 732.193 1222.48 733.282C1222.25 734.371 1221.7 735.367 1220.91 736.144C1220.11 736.921 1219.11 737.445 1218.02 737.648C1216.93 737.852 1215.8 737.726 1214.78 737.288C1213.76 736.849 1212.9 736.117 1212.29 735.184C1211.69 734.251 1211.37 733.159 1211.39 732.046C1211.41 730.557 1212.02 729.137 1213.08 728.096C1214.14 727.056 1215.57 726.481 1217.05 726.497Z" fill="url(#paint82_radial_618_871)"/>
<path d="M1207.81 706.884C1209.2 706.903 1210.56 707.337 1211.71 708.132C1212.86 708.926 1213.75 710.045 1214.27 711.347C1214.79 712.648 1214.91 714.074 1214.62 715.445C1214.33 716.816 1213.64 718.069 1212.64 719.047C1211.64 720.025 1210.37 720.683 1209 720.939C1207.62 721.195 1206.21 721.036 1204.92 720.484C1203.64 719.931 1202.55 719.01 1201.79 717.835C1201.03 716.661 1200.63 715.286 1200.65 713.885C1200.66 712.953 1200.85 712.033 1201.22 711.176C1201.58 710.32 1202.11 709.544 1202.78 708.894C1203.44 708.244 1204.23 707.731 1205.09 707.386C1205.96 707.041 1206.88 706.87 1207.81 706.884Z" fill="url(#paint83_radial_618_871)"/>
<path d="M1201.75 683C1203.4 683.022 1205.02 683.536 1206.38 684.477C1207.75 685.418 1208.8 686.744 1209.42 688.287C1210.03 689.83 1210.18 691.522 1209.83 693.147C1209.49 694.772 1208.67 696.259 1207.49 697.419C1206.3 698.58 1204.8 699.361 1203.17 699.665C1201.54 699.97 1199.86 699.783 1198.34 699.128C1196.82 698.474 1195.52 697.382 1194.62 695.989C1193.72 694.597 1193.24 692.967 1193.26 691.306C1193.28 690.201 1193.5 689.11 1193.94 688.094C1194.37 687.079 1195 686.159 1195.79 685.387C1196.58 684.616 1197.51 684.008 1198.53 683.598C1199.55 683.189 1200.65 682.985 1201.75 683Z" fill="url(#paint84_radial_618_871)"/>
<path d="M1253.51 741.164C1252.52 741.14 1251.54 741.414 1250.7 741.95C1249.85 742.487 1249.19 743.262 1248.79 744.178C1248.39 745.094 1248.27 746.109 1248.44 747.093C1248.62 748.078 1249.08 748.989 1249.77 749.709C1250.46 750.429 1251.35 750.927 1252.33 751.138C1253.3 751.35 1254.32 751.266 1255.24 750.898C1256.17 750.529 1256.97 749.893 1257.53 749.069C1258.1 748.245 1258.41 747.271 1258.42 746.271C1258.44 744.943 1257.93 743.663 1257.01 742.707C1256.09 741.751 1254.84 741.197 1253.51 741.164Z" fill="url(#paint85_radial_618_871)"/>
<path d="M1265.34 727.112C1264.23 727.098 1263.14 727.414 1262.21 728.02C1261.28 728.626 1260.55 729.496 1260.11 730.518C1259.68 731.541 1259.55 732.67 1259.75 733.764C1259.96 734.858 1260.48 735.867 1261.25 736.663C1262.03 737.459 1263.02 738.007 1264.11 738.237C1265.19 738.467 1266.32 738.369 1267.35 737.955C1268.38 737.541 1269.26 736.83 1269.89 735.912C1270.52 734.994 1270.86 733.91 1270.87 732.797C1270.88 732.059 1270.75 731.326 1270.47 730.639C1270.2 729.953 1269.8 729.328 1269.28 728.8C1268.77 728.271 1268.15 727.85 1267.48 727.561C1266.8 727.271 1266.07 727.119 1265.34 727.112Z" fill="url(#paint86_radial_618_871)"/>
<path d="M1281.88 716.365C1282.74 712.548 1280.36 708.752 1276.55 707.886C1272.75 707.02 1268.96 709.412 1268.1 713.23C1267.24 717.047 1269.62 720.844 1273.43 721.71C1277.23 722.575 1281.02 720.183 1281.88 716.365Z" fill="url(#paint87_radial_618_871)"/>
<path d="M1282.8 700.764C1287.37 700.107 1290.56 695.85 1289.9 691.255C1289.25 686.66 1285 683.468 1280.42 684.125C1275.84 684.783 1272.66 689.04 1273.32 693.635C1273.97 698.23 1278.22 701.422 1282.8 700.764Z" fill="url(#paint88_radial_618_871)"/>
<path d="M1240.92 752.854C1240.09 752.842 1239.27 753.078 1238.57 753.532C1237.87 753.987 1237.32 754.64 1236.99 755.408C1236.66 756.176 1236.57 757.024 1236.72 757.846C1236.88 758.667 1237.27 759.425 1237.85 760.023C1238.43 760.621 1239.18 761.032 1239.99 761.204C1240.81 761.376 1241.66 761.301 1242.43 760.989C1243.2 760.678 1243.86 760.142 1244.33 759.452C1244.8 758.762 1245.06 757.947 1245.06 757.111C1245.07 755.996 1244.64 754.922 1243.87 754.125C1243.09 753.327 1242.03 752.87 1240.92 752.854Z" fill="url(#paint89_radial_618_871)"/>
<path d="M1198.37 950.756L1198.35 952.405L1278.35 953.413L1278.37 951.765L1198.37 950.756Z" fill="url(#paint90_linear_618_871)"/>
<path d="M1272.23 937.129C1270.83 937.112 1269.47 936.679 1268.32 935.886C1267.17 935.093 1266.28 933.976 1265.76 932.674C1265.24 931.373 1265.12 929.946 1265.4 928.575C1265.69 927.203 1266.38 925.949 1267.38 924.97C1268.38 923.991 1269.65 923.331 1271.02 923.074C1272.4 922.818 1273.81 922.975 1275.1 923.527C1276.38 924.079 1277.47 925.001 1278.24 926.176C1279 927.351 1279.4 928.726 1279.38 930.127C1279.37 931.058 1279.17 931.978 1278.81 932.833C1278.44 933.689 1277.91 934.464 1277.25 935.114C1276.59 935.764 1275.8 936.277 1274.94 936.622C1274.08 936.968 1273.16 937.14 1272.23 937.129Z" fill="url(#paint91_radial_618_871)"/>
<path d="M1198.28 960.003C1199.93 960.023 1201.56 959.549 1202.95 958.642C1204.33 957.735 1205.42 956.436 1206.08 954.909C1206.73 953.382 1206.91 951.695 1206.61 950.061C1206.31 948.428 1205.53 946.921 1204.37 945.731C1203.22 944.542 1201.73 943.723 1200.11 943.378C1198.49 943.034 1196.81 943.179 1195.27 943.795C1193.73 944.411 1192.41 945.47 1191.47 946.84C1190.53 948.209 1190.02 949.827 1190 951.488C1189.99 952.593 1190.19 953.69 1190.6 954.716C1191 955.742 1191.61 956.677 1192.38 957.468C1193.15 958.259 1194.07 958.89 1195.08 959.325C1196.09 959.76 1197.18 959.99 1198.28 960.003Z" fill="url(#paint92_radial_618_871)"/>
<path d="M1204.95 928.307L1204.93 929.955L1272.26 930.804L1272.28 929.155L1204.95 928.307Z" fill="url(#paint93_linear_618_871)"/>
<path d="M1214.74 910.457L1214.72 912.105L1263 912.714L1263.02 911.066L1214.74 910.457Z" fill="url(#paint94_linear_618_871)"/>
<path d="M1226.57 896.971L1226.55 898.62L1251.54 898.935L1251.56 897.286L1226.57 896.971Z" fill="url(#paint95_linear_618_871)"/>
<path d="M1279.6 960.89C1284.18 960.229 1287.36 955.969 1286.7 951.375C1286.04 946.781 1281.79 943.593 1277.21 944.254C1272.63 944.915 1269.46 949.175 1270.11 953.769C1270.77 958.363 1275.02 961.552 1279.6 960.89Z" fill="url(#paint96_radial_618_871)"/>
<path d="M1272.24 937.129C1273.64 937.146 1275.01 936.747 1276.18 935.982C1277.35 935.218 1278.27 934.122 1278.82 932.833C1279.37 931.545 1279.53 930.122 1279.27 928.744C1279.02 927.366 1278.36 926.095 1277.38 925.092C1276.41 924.088 1275.16 923.398 1273.79 923.108C1272.42 922.818 1271 922.941 1269.7 923.461C1268.41 923.982 1267.29 924.877 1266.5 926.033C1265.71 927.189 1265.28 928.554 1265.26 929.955C1265.25 930.886 1265.42 931.81 1265.77 932.674C1266.11 933.538 1266.62 934.326 1267.27 934.992C1267.92 935.658 1268.69 936.19 1269.55 936.557C1270.4 936.923 1271.31 937.118 1272.24 937.129Z" fill="url(#paint97_radial_618_871)"/>
<path d="M1204.9 936.28C1206.3 936.297 1207.67 935.898 1208.84 935.133C1210.01 934.369 1210.93 933.273 1211.48 931.984C1212.03 930.696 1212.19 929.273 1211.93 927.895C1211.67 926.517 1211.02 925.246 1210.04 924.243C1209.07 923.239 1207.82 922.549 1206.45 922.259C1205.08 921.969 1203.66 922.092 1202.36 922.612C1201.07 923.133 1199.95 924.028 1199.16 925.184C1198.37 926.34 1197.94 927.705 1197.92 929.106C1197.91 930.037 1198.08 930.961 1198.43 931.825C1198.77 932.689 1199.28 933.477 1199.93 934.143C1200.58 934.809 1201.35 935.341 1202.2 935.708C1203.06 936.074 1203.97 936.269 1204.9 936.28Z" fill="url(#paint98_radial_618_871)"/>
<path d="M1251.48 903.168C1250.48 903.155 1249.51 902.846 1248.69 902.279C1247.87 901.711 1247.23 900.912 1246.87 899.982C1246.5 899.052 1246.42 898.033 1246.63 897.056C1246.84 896.078 1247.33 895.185 1248.05 894.491C1248.77 893.797 1249.68 893.332 1250.66 893.157C1251.64 892.981 1252.65 893.102 1253.56 893.505C1254.48 893.907 1255.25 894.573 1255.79 895.417C1256.32 896.261 1256.59 897.246 1256.57 898.246C1256.54 899.573 1255.98 900.834 1255.03 901.756C1254.08 902.677 1252.8 903.185 1251.48 903.168Z" fill="url(#paint99_radial_618_871)"/>
<path d="M1262.99 917.515C1261.89 917.5 1260.81 917.156 1259.89 916.526C1258.98 915.896 1258.27 915.009 1257.86 913.976C1257.45 912.943 1257.36 911.811 1257.59 910.723C1257.82 909.635 1258.36 908.64 1259.16 907.864C1259.95 907.088 1260.96 906.566 1262.05 906.363C1263.14 906.161 1264.26 906.287 1265.28 906.726C1266.3 907.165 1267.17 907.897 1267.77 908.83C1268.37 909.762 1268.69 910.854 1268.67 911.966C1268.67 912.705 1268.51 913.435 1268.22 914.114C1267.93 914.793 1267.51 915.409 1266.98 915.924C1266.46 916.44 1265.83 916.846 1265.15 917.119C1264.46 917.392 1263.73 917.527 1262.99 917.515Z" fill="url(#paint100_radial_618_871)"/>
<path d="M1226.5 902.848C1227.49 902.86 1228.47 902.576 1229.3 902.032C1230.13 901.488 1230.79 900.708 1231.18 899.79C1231.57 898.873 1231.68 897.86 1231.5 896.879C1231.32 895.899 1230.85 894.994 1230.16 894.28C1229.46 893.566 1228.57 893.074 1227.6 892.868C1226.63 892.661 1225.61 892.749 1224.69 893.119C1223.77 893.49 1222.97 894.127 1222.41 894.949C1221.85 895.772 1221.54 896.744 1221.53 897.741C1221.52 898.404 1221.64 899.062 1221.89 899.677C1222.13 900.292 1222.5 900.853 1222.96 901.327C1223.42 901.801 1223.97 902.179 1224.58 902.44C1225.18 902.701 1225.84 902.84 1226.5 902.848Z" fill="url(#paint101_radial_618_871)"/>
<path d="M1214.74 916.912C1217.83 916.912 1220.34 914.395 1220.34 911.289C1220.34 908.183 1217.83 905.666 1214.74 905.666C1211.64 905.666 1209.13 908.183 1209.13 911.289C1209.13 914.395 1211.64 916.912 1214.74 916.912Z" fill="url(#paint102_radial_618_871)"/>
</g>
<defs>
<linearGradient id="paint0_linear_618_871" x1="1354" y1="0.000103365" x2="9.8398e-06" y2="916" gradientUnits="userSpaceOnUse">
<stop stop-color="#B8CDFC"/>
<stop offset="0.538099" stop-color="#EDECFE"/>
<stop offset="1" stop-color="#FAECFD"/>
</linearGradient>
<radialGradient id="paint1_radial_618_871" cx="0" cy="0" r="1" gradientUnits="userSpaceOnUse" gradientTransform="translate(727.098 431.888) scale(25.0831 25.0758)">
<stop stop-color="white"/>
<stop offset="1" stop-color="#B3D9E5"/>
</radialGradient>
<radialGradient id="paint2_radial_618_871" cx="0" cy="0" r="1" gradientUnits="userSpaceOnUse" gradientTransform="translate(734.233 437.676) scale(9.12385 9.12122)">
<stop stop-color="white"/>
<stop offset="1" stop-color="#B3D9E5"/>
</radialGradient>
<radialGradient id="paint3_radial_618_871" cx="0" cy="0" r="1" gradientUnits="userSpaceOnUse" gradientTransform="translate(734.414 436.863) scale(9.12385 9.12122)">
<stop stop-color="white"/>
<stop offset="1" stop-color="#B3D9E5"/>
</radialGradient>
<radialGradient id="paint4_radial_618_871" cx="0" cy="0" r="1" gradientUnits="userSpaceOnUse" gradientTransform="translate(735.136 436.773) scale(9.12384 9.12124)">
<stop stop-color="white"/>
<stop offset="1" stop-color="#B3D9E5"/>
</radialGradient>
<linearGradient id="paint5_linear_618_871" x1="1175.51" y1="178.21" x2="1175.51" y2="180.154" gradientUnits="userSpaceOnUse">
<stop stop-color="white"/>
<stop offset="0.16" stop-color="#F3FFFF"/>
<stop offset="0.71" stop-color="#CDFFFF"/>
<stop offset="1" stop-color="#BEFFFF"/>
</linearGradient>
<linearGradient id="paint6_linear_618_871" x1="1175.67" y1="164.502" x2="1175.67" y2="166.852" gradientUnits="userSpaceOnUse">
<stop stop-color="white"/>
<stop offset="0.16" stop-color="#F3FFFF"/>
<stop offset="0.71" stop-color="#CDFFFF"/>
<stop offset="1" stop-color="#BEFFFF"/>
</linearGradient>
<linearGradient id="paint7_linear_618_871" x1="1174.99" y1="218.527" x2="1174.99" y2="220.213" gradientUnits="userSpaceOnUse">
<stop stop-color="white"/>
<stop offset="0.16" stop-color="#F3FFFF"/>
<stop offset="0.71" stop-color="#CDFFFF"/>
<stop offset="1" stop-color="#BEFFFF"/>
</linearGradient>
<linearGradient id="paint8_linear_618_871" x1="1174.7" y1="241.378" x2="1174.7" y2="243.175" gradientUnits="userSpaceOnUse">
<stop stop-color="white"/>
<stop offset="0.16" stop-color="#F3FFFF"/>
<stop offset="0.71" stop-color="#CDFFFF"/>
<stop offset="1" stop-color="#BEFFFF"/>
</linearGradient>
<linearGradient id="paint9_linear_618_871" x1="1174.49" y1="259.104" x2="1174.49" y2="261.035" gradientUnits="userSpaceOnUse">
<stop stop-color="white"/>
<stop offset="0.16" stop-color="#F3FFFF"/>
<stop offset="0.71" stop-color="#CDFFFF"/>
<stop offset="1" stop-color="#BEFFFF"/>
</linearGradient>
<linearGradient id="paint10_linear_618_871" x1="1174.33" y1="272.947" x2="1174.33" y2="274.337" gradientUnits="userSpaceOnUse">
<stop stop-color="white"/>
<stop offset="0.16" stop-color="#F3FFFF"/>
<stop offset="0.71" stop-color="#CDFFFF"/>
<stop offset="1" stop-color="#BEFFFF"/>
</linearGradient>
<linearGradient id="paint11_linear_618_871" x1="1173.92" y1="194.596" x2="1173.93" y2="196.27" gradientUnits="userSpaceOnUse">
<stop stop-color="white"/>
<stop offset="0.16" stop-color="#F3FFFF"/>
<stop offset="0.71" stop-color="#CDFFFF"/>
<stop offset="1" stop-color="#BEFFFF"/>
</linearGradient>
<radialGradient id="paint12_radial_618_871" cx="0" cy="0" r="1" gradientUnits="userSpaceOnUse" gradientTransform="translate(1159.44 271.51) scale(5.0282 5.04492)">
<stop stop-color="white"/>
<stop offset="0.16" stop-color="#F3FFFF"/>
<stop offset="0.71" stop-color="#CDFFFF"/>
<stop offset="1" stop-color="#BEFFFF"/>
</radialGradient>
<radialGradient id="paint13_radial_618_871" cx="0" cy="0" r="1" gradientUnits="userSpaceOnUse" gradientTransform="translate(1147.22 257.175) scale(5.60461 5.62325)">
<stop stop-color="white"/>
<stop offset="0.16" stop-color="#F3FFFF"/>
<stop offset="0.71" stop-color="#CDFFFF"/>
<stop offset="1" stop-color="#BEFFFF"/>
</radialGradient>
<radialGradient id="paint14_radial_618_871" cx="0" cy="0" r="1" gradientUnits="userSpaceOnUse" gradientTransform="translate(1138.85 239.223) scale(7.06402 7.08751)">
<stop stop-color="white"/>
<stop offset="0.16" stop-color="#F3FFFF"/>
<stop offset="0.71" stop-color="#CDFFFF"/>
<stop offset="1" stop-color="#BEFFFF"/>
</radialGradient>
<radialGradient id="paint15_radial_618_871" cx="0" cy="0" r="1" gradientUnits="userSpaceOnUse" gradientTransform="translate(1134.08 218.006) rotate(0.0514796) scale(8.4001 8.42803)">
<stop stop-color="white"/>
<stop offset="0.16" stop-color="#F3FFFF"/>
<stop offset="0.71" stop-color="#CDFFFF"/>
<stop offset="1" stop-color="#BEFFFF"/>
</radialGradient>
<radialGradient id="paint16_radial_618_871" cx="0" cy="0" r="1" gradientUnits="userSpaceOnUse" gradientTransform="translate(1162.27 163.229) scale(5.02822 5.04494)">
<stop stop-color="white"/>
<stop offset="0.16" stop-color="#F3FFFF"/>
<stop offset="0.71" stop-color="#CDFFFF"/>
<stop offset="1" stop-color="#BEFFFF"/>
</radialGradient>
<radialGradient id="paint17_radial_618_871" cx="0" cy="0" r="1" gradientUnits="userSpaceOnUse" gradientTransform="translate(1150.08 176.53) scale(5.6046 5.62325)">
<stop stop-color="white"/>
<stop offset="0.16" stop-color="#F3FFFF"/>
<stop offset="0.71" stop-color="#CDFFFF"/>
<stop offset="1" stop-color="#BEFFFF"/>
</radialGradient>
<radialGradient id="paint18_radial_618_871" cx="0" cy="0" r="1" gradientUnits="userSpaceOnUse" gradientTransform="translate(1140.15 194.434) scale(7.06402 7.0875)">
<stop stop-color="white"/>
<stop offset="0.16" stop-color="#F3FFFF"/>
<stop offset="0.71" stop-color="#CDFFFF"/>
<stop offset="1" stop-color="#BEFFFF"/>
</radialGradient>
<radialGradient id="paint19_radial_618_871" cx="0" cy="0" r="1" gradientUnits="userSpaceOnUse" gradientTransform="translate(1184.79 271.633) scale(5.02821 5.04492)">
<stop stop-color="white"/>
<stop offset="0.16" stop-color="#F3FFFF"/>
<stop offset="0.71" stop-color="#CDFFFF"/>
<stop offset="1" stop-color="#BEFFFF"/>
</radialGradient>
<radialGradient id="paint20_radial_618_871" cx="0" cy="0" r="1" gradientUnits="userSpaceOnUse" gradientTransform="translate(1196.79 258.16) scale(5.60461 5.62325)">
<stop stop-color="white"/>
<stop offset="0.16" stop-color="#F3FFFF"/>
<stop offset="0.71" stop-color="#CDFFFF"/>
<stop offset="1" stop-color="#BEFFFF"/>
</radialGradient>
<radialGradient id="paint21_radial_618_871" cx="0" cy="0" r="1" gradientUnits="userSpaceOnUse" gradientTransform="translate(1205.62 240.072) scale(7.06403 7.08751)">
<stop stop-color="white"/>
<stop offset="0.16" stop-color="#F3FFFF"/>
<stop offset="0.71" stop-color="#CDFFFF"/>
<stop offset="1" stop-color="#BEFFFF"/>
</radialGradient>
<radialGradient id="paint22_radial_618_871" cx="0" cy="0" r="1" gradientUnits="userSpaceOnUse" gradientTransform="translate(1212.42 217.672) scale(8.37626 8.40411)">
<stop stop-color="white"/>
<stop offset="0.16" stop-color="#F3FFFF"/>
<stop offset="0.71" stop-color="#CDFFFF"/>
<stop offset="1" stop-color="#BEFFFF"/>
</radialGradient>
<radialGradient id="paint23_radial_618_871" cx="0" cy="0" r="1" gradientUnits="userSpaceOnUse" gradientTransform="translate(1187.44 163.918) scale(5.0282 5.04492)">
<stop stop-color="white"/>
<stop offset="0.16" stop-color="#F3FFFF"/>
<stop offset="0.71" stop-color="#CDFFFF"/>
<stop offset="1" stop-color="#BEFFFF"/>
</radialGradient>
<radialGradient id="paint24_radial_618_871" cx="0" cy="0" r="1" gradientUnits="userSpaceOnUse" gradientTransform="translate(1198.36 177.515) scale(5.60462 5.62324)">
<stop stop-color="white"/>
<stop offset="0.16" stop-color="#F3FFFF"/>
<stop offset="0.71" stop-color="#CDFFFF"/>
<stop offset="1" stop-color="#BEFFFF"/>
</radialGradient>
<radialGradient id="paint25_radial_618_871" cx="0" cy="0" r="1" gradientUnits="userSpaceOnUse" gradientTransform="translate(1207.29 195.098) scale(7.06402 7.08751)">
<stop stop-color="white"/>
<stop offset="0.16" stop-color="#F3FFFF"/>
<stop offset="0.71" stop-color="#CDFFFF"/>
<stop offset="1" stop-color="#BEFFFF"/>
</radialGradient>
<radialGradient id="paint26_radial_618_871" cx="0" cy="0" r="1" gradientUnits="userSpaceOnUse" gradientTransform="translate(1172.53 283.04) scale(4.20653 4.22053)">
<stop stop-color="white"/>
<stop offset="0.16" stop-color="#F3FFFF"/>
<stop offset="0.71" stop-color="#CDFFFF"/>
<stop offset="1" stop-color="#BEFFFF"/>
</radialGradient>
<radialGradient id="paint27_radial_618_871" cx="0" cy="0" r="1" gradientUnits="userSpaceOnUse" gradientTransform="translate(1174.9 152.942) scale(4.20653 4.22051)">
<stop stop-color="white"/>
<stop offset="0.16" stop-color="#F3FFFF"/>
<stop offset="0.71" stop-color="#CDFFFF"/>
<stop offset="1" stop-color="#BEFFFF"/>
</radialGradient>
<linearGradient id="paint28_linear_618_871" x1="1176.63" y1="88.4806" x2="1176.63" y2="90.437" gradientUnits="userSpaceOnUse">
<stop stop-color="white"/>
<stop offset="0.16" stop-color="#F3FFFF"/>
<stop offset="0.71" stop-color="#CDFFFF"/>
<stop offset="1" stop-color="#BEFFFF"/>
</linearGradient>
<linearGradient id="paint29_linear_618_871" x1="1176.35" y1="111.319" x2="1176.35" y2="112.845" gradientUnits="userSpaceOnUse">
<stop stop-color="white"/>
<stop offset="0.16" stop-color="#F3FFFF"/>
<stop offset="0.71" stop-color="#CDFFFF"/>
<stop offset="1" stop-color="#BEFFFF"/>
</linearGradient>
<linearGradient id="paint30_linear_618_871" x1="1176.12" y1="128.774" x2="1176.12" y2="130.3" gradientUnits="userSpaceOnUse">
<stop stop-color="white"/>
<stop offset="0.16" stop-color="#F3FFFF"/>
<stop offset="0.71" stop-color="#CDFFFF"/>
<stop offset="1" stop-color="#BEFFFF"/>
</linearGradient>
<linearGradient id="paint31_linear_618_871" x1="1175.95" y1="142.198" x2="1175.95" y2="144.278" gradientUnits="userSpaceOnUse">
<stop stop-color="white"/>
<stop offset="0.16" stop-color="#F3FFFF"/>
<stop offset="0.71" stop-color="#CDFFFF"/>
<stop offset="1" stop-color="#BEFFFF"/>
</linearGradient>
<radialGradient id="paint32_radial_618_871" cx="0" cy="0" r="1" gradientUnits="userSpaceOnUse" gradientTransform="translate(1161.67 141.228) scale(5.0282 5.04494)">
<stop stop-color="white"/>
<stop offset="0.16" stop-color="#F3FFFF"/>
<stop offset="0.71" stop-color="#CDFFFF"/>
<stop offset="1" stop-color="#BEFFFF"/>
</radialGradient>
<radialGradient id="paint33_radial_618_871" cx="0" cy="0" r="1" gradientUnits="userSpaceOnUse" gradientTransform="translate(1150.33 128.148) scale(5.6046 5.62326)">
<stop stop-color="white"/>
<stop offset="0.16" stop-color="#F3FFFF"/>
<stop offset="0.71" stop-color="#CDFFFF"/>
<stop offset="1" stop-color="#BEFFFF"/>
</radialGradient>
<radialGradient id="paint34_radial_618_871" cx="0" cy="0" r="1" gradientUnits="userSpaceOnUse" gradientTransform="translate(1140.62 109.175) scale(7.06401 7.0875)">
<stop stop-color="white"/>
<stop offset="0.16" stop-color="#F3FFFF"/>
<stop offset="0.71" stop-color="#CDFFFF"/>
<stop offset="1" stop-color="#BEFFFF"/>
</radialGradient>
<radialGradient id="paint35_radial_618_871" cx="0" cy="0" r="1" gradientUnits="userSpaceOnUse" gradientTransform="translate(1134.3 85.7709) scale(8.37625 8.4041)">
<stop stop-color="white"/>
<stop offset="0.16" stop-color="#F3FFFF"/>
<stop offset="0.71" stop-color="#CDFFFF"/>
<stop offset="1" stop-color="#BEFFFF"/>
</radialGradient>
<radialGradient id="paint36_radial_618_871" cx="0" cy="0" r="1" gradientUnits="userSpaceOnUse" gradientTransform="translate(1186.8 141.819) scale(5.0282 5.04493)">
<stop stop-color="white"/>
<stop offset="0.16" stop-color="#F3FFFF"/>
<stop offset="0.71" stop-color="#CDFFFF"/>
<stop offset="1" stop-color="#BEFFFF"/>
</radialGradient>
<radialGradient id="paint37_radial_618_871" cx="0" cy="0" r="1" gradientUnits="userSpaceOnUse" gradientTransform="translate(1198.89 128.751) scale(5.60462 5.62325)">
<stop stop-color="white"/>
<stop offset="0.16" stop-color="#F3FFFF"/>
<stop offset="0.71" stop-color="#CDFFFF"/>
<stop offset="1" stop-color="#BEFFFF"/>
</radialGradient>
<radialGradient id="paint38_radial_618_871" cx="0" cy="0" r="1" gradientUnits="userSpaceOnUse" gradientTransform="translate(1208.04 110.02) scale(7.06403 7.0875)">
<stop stop-color="white"/>
<stop offset="0.16" stop-color="#F3FFFF"/>
<stop offset="0.71" stop-color="#CDFFFF"/>
<stop offset="1" stop-color="#BEFFFF"/>
</radialGradient>
<radialGradient id="paint39_radial_618_871" cx="0" cy="0" r="1" gradientUnits="userSpaceOnUse" gradientTransform="translate(1213.6 86.5141) scale(8.37626 8.40411)">
<stop stop-color="white"/>
<stop offset="0.16" stop-color="#F3FFFF"/>
<stop offset="0.71" stop-color="#CDFFFF"/>
<stop offset="1" stop-color="#BEFFFF"/>
</radialGradient>
<radialGradient id="paint40_radial_618_871" cx="0" cy="0" r="1" gradientUnits="userSpaceOnUse" gradientTransform="translate(1174.02 153.078) scale(4.20653 4.22051)">
<stop stop-color="white"/>
<stop offset="0.16" stop-color="#F3FFFF"/>
<stop offset="0.71" stop-color="#CDFFFF"/>
<stop offset="1" stop-color="#BEFFFF"/>
</radialGradient>
<linearGradient id="paint41_linear_618_871" x1="1173.36" y1="348.803" x2="1173.36" y2="350.464" gradientUnits="userSpaceOnUse">
<stop stop-color="white"/>
<stop offset="0.16" stop-color="#F3FFFF"/>
<stop offset="0.71" stop-color="#CDFFFF"/>
<stop offset="1" stop-color="#BEFFFF"/>
</linearGradient>
<radialGradient id="paint42_radial_618_871" cx="0" cy="0" r="1" gradientUnits="userSpaceOnUse" gradientTransform="translate(1207.32 327.041) scale(7.06401 7.08751)">
<stop stop-color="white"/>
<stop offset="0.16" stop-color="#F3FFFF"/>
<stop offset="0.71" stop-color="#CDFFFF"/>
<stop offset="1" stop-color="#BEFFFF"/>
</radialGradient>
<radialGradient id="paint43_radial_618_871" cx="0" cy="0" r="1" gradientUnits="userSpaceOnUse" gradientTransform="translate(1130.25 346.569) scale(8.37625 8.40411)">
<stop stop-color="white"/>
<stop offset="0.16" stop-color="#F3FFFF"/>
<stop offset="0.71" stop-color="#CDFFFF"/>
<stop offset="1" stop-color="#BEFFFF"/>
</radialGradient>
<linearGradient id="paint44_linear_618_871" x1="1173.55" y1="325.976" x2="1173.55" y2="327.551" gradientUnits="userSpaceOnUse">
<stop stop-color="white"/>
<stop offset="0.16" stop-color="#F3FFFF"/>
<stop offset="0.71" stop-color="#CDFFFF"/>
<stop offset="1" stop-color="#BEFFFF"/>
</linearGradient>
<linearGradient id="paint45_linear_618_871" x1="1173.88" y1="308.165" x2="1173.88" y2="309.642" gradientUnits="userSpaceOnUse">
<stop stop-color="white"/>
<stop offset="0.16" stop-color="#F3FFFF"/>
<stop offset="0.71" stop-color="#CDFFFF"/>
<stop offset="1" stop-color="#BEFFFF"/>
</linearGradient>
<linearGradient id="paint46_linear_618_871" x1="1174.04" y1="294.04" x2="1174.04" y2="295.996" gradientUnits="userSpaceOnUse">
<stop stop-color="white"/>
<stop offset="0.16" stop-color="#F3FFFF"/>
<stop offset="0.71" stop-color="#CDFFFF"/>
<stop offset="1" stop-color="#BEFFFF"/>
</linearGradient>
<radialGradient id="paint47_radial_618_871" cx="0" cy="0" r="1" gradientUnits="userSpaceOnUse" gradientTransform="translate(1210.24 347.576) scale(8.37626 8.40409)">
<stop stop-color="white"/>
<stop offset="0.16" stop-color="#F3FFFF"/>
<stop offset="0.71" stop-color="#CDFFFF"/>
<stop offset="1" stop-color="#BEFFFF"/>
</radialGradient>
<radialGradient id="paint48_radial_618_871" cx="0" cy="0" r="1" gradientUnits="userSpaceOnUse" gradientTransform="translate(1204.57 324.827) scale(7.06402 7.08752)">
<stop stop-color="white"/>
<stop offset="0.16" stop-color="#F3FFFF"/>
<stop offset="0.71" stop-color="#CDFFFF"/>
<stop offset="1" stop-color="#BEFFFF"/>
</radialGradient>
<radialGradient id="paint49_radial_618_871" cx="0" cy="0" r="1" gradientUnits="userSpaceOnUse" gradientTransform="translate(1137.23 323.978) scale(7.06402 7.08752)">
<stop stop-color="white"/>
<stop offset="0.16" stop-color="#F3FFFF"/>
<stop offset="0.71" stop-color="#CDFFFF"/>
<stop offset="1" stop-color="#BEFFFF"/>
</radialGradient>
<radialGradient id="paint50_radial_618_871" cx="0" cy="0" r="1" gradientUnits="userSpaceOnUse" gradientTransform="translate(1184.8 292.994) scale(5.02821 5.04492)">
<stop stop-color="white"/>
<stop offset="0.16" stop-color="#F3FFFF"/>
<stop offset="0.71" stop-color="#CDFFFF"/>
<stop offset="1" stop-color="#BEFFFF"/>
</radialGradient>
<radialGradient id="paint51_radial_618_871" cx="0" cy="0" r="1" gradientUnits="userSpaceOnUse" gradientTransform="translate(1195.91 306.874) scale(5.60462 5.62326)">
<stop stop-color="white"/>
<stop offset="0.16" stop-color="#F3FFFF"/>
<stop offset="0.71" stop-color="#CDFFFF"/>
<stop offset="1" stop-color="#BEFFFF"/>
</radialGradient>
<radialGradient id="paint52_radial_618_871" cx="0" cy="0" r="1" gradientUnits="userSpaceOnUse" gradientTransform="translate(1159.35 292.773) scale(5.0282 5.04496)">
<stop stop-color="white"/>
<stop offset="0.16" stop-color="#F3FFFF"/>
<stop offset="0.71" stop-color="#CDFFFF"/>
<stop offset="1" stop-color="#BEFFFF"/>
</radialGradient>
<radialGradient id="paint53_radial_618_871" cx="0" cy="0" r="1" gradientUnits="userSpaceOnUse" gradientTransform="translate(1147.06 306.16) scale(5.60461 5.62325)">
<stop stop-color="white"/>
<stop offset="0.16" stop-color="#F3FFFF"/>
<stop offset="0.71" stop-color="#CDFFFF"/>
<stop offset="1" stop-color="#BEFFFF"/>
</radialGradient>
<linearGradient id="paint54_linear_618_871" x1="1240.51" y1="781.21" x2="1240.51" y2="783.154" gradientUnits="userSpaceOnUse">
<stop stop-color="white"/>
<stop offset="0.16" stop-color="#F3FFFF"/>
<stop offset="0.71" stop-color="#CDFFFF"/>
<stop offset="1" stop-color="#BEFFFF"/>
</linearGradient>
<linearGradient id="paint55_linear_618_871" x1="1240.67" y1="767.502" x2="1240.67" y2="769.852" gradientUnits="userSpaceOnUse">
<stop stop-color="white"/>
<stop offset="0.16" stop-color="#F3FFFF"/>
<stop offset="0.71" stop-color="#CDFFFF"/>
<stop offset="1" stop-color="#BEFFFF"/>
</linearGradient>
<linearGradient id="paint56_linear_618_871" x1="1239.99" y1="821.527" x2="1239.99" y2="823.213" gradientUnits="userSpaceOnUse">
<stop stop-color="white"/>
<stop offset="0.16" stop-color="#F3FFFF"/>
<stop offset="0.71" stop-color="#CDFFFF"/>
<stop offset="1" stop-color="#BEFFFF"/>
</linearGradient>
<linearGradient id="paint57_linear_618_871" x1="1239.7" y1="844.378" x2="1239.7" y2="846.175" gradientUnits="userSpaceOnUse">
<stop stop-color="white"/>
<stop offset="0.16" stop-color="#F3FFFF"/>
<stop offset="0.71" stop-color="#CDFFFF"/>
<stop offset="1" stop-color="#BEFFFF"/>
</linearGradient>
<linearGradient id="paint58_linear_618_871" x1="1239.49" y1="862.104" x2="1239.49" y2="864.035" gradientUnits="userSpaceOnUse">
<stop stop-color="white"/>
<stop offset="0.16" stop-color="#F3FFFF"/>
<stop offset="0.71" stop-color="#CDFFFF"/>
<stop offset="1" stop-color="#BEFFFF"/>
</linearGradient>
<linearGradient id="paint59_linear_618_871" x1="1239.33" y1="875.947" x2="1239.33" y2="877.337" gradientUnits="userSpaceOnUse">
<stop stop-color="white"/>
<stop offset="0.16" stop-color="#F3FFFF"/>
<stop offset="0.71" stop-color="#CDFFFF"/>
<stop offset="1" stop-color="#BEFFFF"/>
</linearGradient>
<linearGradient id="paint60_linear_618_871" x1="1238.92" y1="797.596" x2="1238.93" y2="799.27" gradientUnits="userSpaceOnUse">
<stop stop-color="white"/>
<stop offset="0.16" stop-color="#F3FFFF"/>
<stop offset="0.71" stop-color="#CDFFFF"/>
<stop offset="1" stop-color="#BEFFFF"/>
</linearGradient>
<radialGradient id="paint61_radial_618_871" cx="0" cy="0" r="1" gradientUnits="userSpaceOnUse" gradientTransform="translate(1224.44 874.51) scale(5.0282 5.04492)">
<stop stop-color="white"/>
<stop offset="0.16" stop-color="#F3FFFF"/>
<stop offset="0.71" stop-color="#CDFFFF"/>
<stop offset="1" stop-color="#BEFFFF"/>
</radialGradient>
<radialGradient id="paint62_radial_618_871" cx="0" cy="0" r="1" gradientUnits="userSpaceOnUse" gradientTransform="translate(1212.22 860.175) scale(5.60461 5.62325)">
<stop stop-color="white"/>
<stop offset="0.16" stop-color="#F3FFFF"/>
<stop offset="0.71" stop-color="#CDFFFF"/>
<stop offset="1" stop-color="#BEFFFF"/>
</radialGradient>
<radialGradient id="paint63_radial_618_871" cx="0" cy="0" r="1" gradientUnits="userSpaceOnUse" gradientTransform="translate(1203.85 842.223) scale(7.06402 7.08751)">
<stop stop-color="white"/>
<stop offset="0.16" stop-color="#F3FFFF"/>
<stop offset="0.71" stop-color="#CDFFFF"/>
<stop offset="1" stop-color="#BEFFFF"/>
</radialGradient>
<radialGradient id="paint64_radial_618_871" cx="0" cy="0" r="1" gradientUnits="userSpaceOnUse" gradientTransform="translate(1199.08 821.006) rotate(0.0514796) scale(8.4001 8.42803)">
<stop stop-color="white"/>
<stop offset="0.16" stop-color="#F3FFFF"/>
<stop offset="0.71" stop-color="#CDFFFF"/>
<stop offset="1" stop-color="#BEFFFF"/>
</radialGradient>
<radialGradient id="paint65_radial_618_871" cx="0" cy="0" r="1" gradientUnits="userSpaceOnUse" gradientTransform="translate(1227.27 766.229) scale(5.02822 5.04494)">
<stop stop-color="white"/>
<stop offset="0.16" stop-color="#F3FFFF"/>
<stop offset="0.71" stop-color="#CDFFFF"/>
<stop offset="1" stop-color="#BEFFFF"/>
</radialGradient>
<radialGradient id="paint66_radial_618_871" cx="0" cy="0" r="1" gradientUnits="userSpaceOnUse" gradientTransform="translate(1215.08 779.53) scale(5.6046 5.62325)">
<stop stop-color="white"/>
<stop offset="0.16" stop-color="#F3FFFF"/>
<stop offset="0.71" stop-color="#CDFFFF"/>
<stop offset="1" stop-color="#BEFFFF"/>
</radialGradient>
<radialGradient id="paint67_radial_618_871" cx="0" cy="0" r="1" gradientUnits="userSpaceOnUse" gradientTransform="translate(1205.15 797.434) scale(7.06402 7.0875)">
<stop stop-color="white"/>
<stop offset="0.16" stop-color="#F3FFFF"/>
<stop offset="0.71" stop-color="#CDFFFF"/>
<stop offset="1" stop-color="#BEFFFF"/>
</radialGradient>
<radialGradient id="paint68_radial_618_871" cx="0" cy="0" r="1" gradientUnits="userSpaceOnUse" gradientTransform="translate(1249.79 874.633) scale(5.02821 5.04492)">
<stop stop-color="white"/>
<stop offset="0.16" stop-color="#F3FFFF"/>
<stop offset="0.71" stop-color="#CDFFFF"/>
<stop offset="1" stop-color="#BEFFFF"/>
</radialGradient>
<radialGradient id="paint69_radial_618_871" cx="0" cy="0" r="1" gradientUnits="userSpaceOnUse" gradientTransform="translate(1261.79 861.16) scale(5.60461 5.62325)">
<stop stop-color="white"/>
<stop offset="0.16" stop-color="#F3FFFF"/>
<stop offset="0.71" stop-color="#CDFFFF"/>
<stop offset="1" stop-color="#BEFFFF"/>
</radialGradient>
<radialGradient id="paint70_radial_618_871" cx="0" cy="0" r="1" gradientUnits="userSpaceOnUse" gradientTransform="translate(1270.62 843.072) scale(7.06403 7.08751)">
<stop stop-color="white"/>
<stop offset="0.16" stop-color="#F3FFFF"/>
<stop offset="0.71" stop-color="#CDFFFF"/>
<stop offset="1" stop-color="#BEFFFF"/>
</radialGradient>
<radialGradient id="paint71_radial_618_871" cx="0" cy="0" r="1" gradientUnits="userSpaceOnUse" gradientTransform="translate(1277.42 820.672) scale(8.37626 8.40411)">
<stop stop-color="white"/>
<stop offset="0.16" stop-color="#F3FFFF"/>
<stop offset="0.71" stop-color="#CDFFFF"/>
<stop offset="1" stop-color="#BEFFFF"/>
</radialGradient>
<radialGradient id="paint72_radial_618_871" cx="0" cy="0" r="1" gradientUnits="userSpaceOnUse" gradientTransform="translate(1252.44 766.918) scale(5.0282 5.04492)">
<stop stop-color="white"/>
<stop offset="0.16" stop-color="#F3FFFF"/>
<stop offset="0.71" stop-color="#CDFFFF"/>
<stop offset="1" stop-color="#BEFFFF"/>
</radialGradient>
<radialGradient id="paint73_radial_618_871" cx="0" cy="0" r="1" gradientUnits="userSpaceOnUse" gradientTransform="translate(1263.36 780.515) scale(5.60462 5.62324)">
<stop stop-color="white"/>
<stop offset="0.16" stop-color="#F3FFFF"/>
<stop offset="0.71" stop-color="#CDFFFF"/>
<stop offset="1" stop-color="#BEFFFF"/>
</radialGradient>
<radialGradient id="paint74_radial_618_871" cx="0" cy="0" r="1" gradientUnits="userSpaceOnUse" gradientTransform="translate(1272.29 798.098) scale(7.06402 7.08751)">
<stop stop-color="white"/>
<stop offset="0.16" stop-color="#F3FFFF"/>
<stop offset="0.71" stop-color="#CDFFFF"/>
<stop offset="1" stop-color="#BEFFFF"/>
</radialGradient>
<radialGradient id="paint75_radial_618_871" cx="0" cy="0" r="1" gradientUnits="userSpaceOnUse" gradientTransform="translate(1237.53 886.04) scale(4.20653 4.22053)">
<stop stop-color="white"/>
<stop offset="0.16" stop-color="#F3FFFF"/>
<stop offset="0.71" stop-color="#CDFFFF"/>
<stop offset="1" stop-color="#BEFFFF"/>
</radialGradient>
<radialGradient id="paint76_radial_618_871" cx="0" cy="0" r="1" gradientUnits="userSpaceOnUse" gradientTransform="translate(1239.9 755.942) scale(4.20653 4.22051)">
<stop stop-color="white"/>
<stop offset="0.16" stop-color="#F3FFFF"/>
<stop offset="0.71" stop-color="#CDFFFF"/>
<stop offset="1" stop-color="#BEFFFF"/>
</radialGradient>
<linearGradient id="paint77_linear_618_871" x1="1241.63" y1="691.481" x2="1241.63" y2="693.437" gradientUnits="userSpaceOnUse">
<stop stop-color="white"/>
<stop offset="0.16" stop-color="#F3FFFF"/>
<stop offset="0.71" stop-color="#CDFFFF"/>
<stop offset="1" stop-color="#BEFFFF"/>
</linearGradient>
<linearGradient id="paint78_linear_618_871" x1="1241.35" y1="714.319" x2="1241.35" y2="715.845" gradientUnits="userSpaceOnUse">
<stop stop-color="white"/>
<stop offset="0.16" stop-color="#F3FFFF"/>
<stop offset="0.71" stop-color="#CDFFFF"/>
<stop offset="1" stop-color="#BEFFFF"/>
</linearGradient>
<linearGradient id="paint79_linear_618_871" x1="1241.12" y1="731.774" x2="1241.12" y2="733.3" gradientUnits="userSpaceOnUse">
<stop stop-color="white"/>
<stop offset="0.16" stop-color="#F3FFFF"/>
<stop offset="0.71" stop-color="#CDFFFF"/>
<stop offset="1" stop-color="#BEFFFF"/>
</linearGradient>
<linearGradient id="paint80_linear_618_871" x1="1240.95" y1="745.198" x2="1240.95" y2="747.278" gradientUnits="userSpaceOnUse">
<stop stop-color="white"/>
<stop offset="0.16" stop-color="#F3FFFF"/>
<stop offset="0.71" stop-color="#CDFFFF"/>
<stop offset="1" stop-color="#BEFFFF"/>
</linearGradient>
<radialGradient id="paint81_radial_618_871" cx="0" cy="0" r="1" gradientUnits="userSpaceOnUse" gradientTransform="translate(1226.67 744.228) scale(5.0282 5.04494)">
<stop stop-color="white"/>
<stop offset="0.16" stop-color="#F3FFFF"/>
<stop offset="0.71" stop-color="#CDFFFF"/>
<stop offset="1" stop-color="#BEFFFF"/>
</radialGradient>
<radialGradient id="paint82_radial_618_871" cx="0" cy="0" r="1" gradientUnits="userSpaceOnUse" gradientTransform="translate(1215.33 731.148) scale(5.6046 5.62326)">
<stop stop-color="white"/>
<stop offset="0.16" stop-color="#F3FFFF"/>
<stop offset="0.71" stop-color="#CDFFFF"/>
<stop offset="1" stop-color="#BEFFFF"/>
</radialGradient>
<radialGradient id="paint83_radial_618_871" cx="0" cy="0" r="1" gradientUnits="userSpaceOnUse" gradientTransform="translate(1205.62 712.175) scale(7.06401 7.0875)">
<stop stop-color="white"/>
<stop offset="0.16" stop-color="#F3FFFF"/>
<stop offset="0.71" stop-color="#CDFFFF"/>
<stop offset="1" stop-color="#BEFFFF"/>
</radialGradient>
<radialGradient id="paint84_radial_618_871" cx="0" cy="0" r="1" gradientUnits="userSpaceOnUse" gradientTransform="translate(1199.3 688.771) scale(8.37625 8.4041)">
<stop stop-color="white"/>
<stop offset="0.16" stop-color="#F3FFFF"/>
<stop offset="0.71" stop-color="#CDFFFF"/>
<stop offset="1" stop-color="#BEFFFF"/>
</radialGradient>
<radialGradient id="paint85_radial_618_871" cx="0" cy="0" r="1" gradientUnits="userSpaceOnUse" gradientTransform="translate(1251.8 744.819) scale(5.0282 5.04493)">
<stop stop-color="white"/>
<stop offset="0.16" stop-color="#F3FFFF"/>
<stop offset="0.71" stop-color="#CDFFFF"/>
<stop offset="1" stop-color="#BEFFFF"/>
</radialGradient>
<radialGradient id="paint86_radial_618_871" cx="0" cy="0" r="1" gradientUnits="userSpaceOnUse" gradientTransform="translate(1263.89 731.751) scale(5.60462 5.62325)">
<stop stop-color="white"/>
<stop offset="0.16" stop-color="#F3FFFF"/>
<stop offset="0.71" stop-color="#CDFFFF"/>
<stop offset="1" stop-color="#BEFFFF"/>
</radialGradient>
<radialGradient id="paint87_radial_618_871" cx="0" cy="0" r="1" gradientUnits="userSpaceOnUse" gradientTransform="translate(1273.04 713.02) scale(7.06403 7.0875)">
<stop stop-color="white"/>
<stop offset="0.16" stop-color="#F3FFFF"/>
<stop offset="0.71" stop-color="#CDFFFF"/>
<stop offset="1" stop-color="#BEFFFF"/>
</radialGradient>
<radialGradient id="paint88_radial_618_871" cx="0" cy="0" r="1" gradientUnits="userSpaceOnUse" gradientTransform="translate(1278.6 689.514) scale(8.37626 8.40411)">
<stop stop-color="white"/>
<stop offset="0.16" stop-color="#F3FFFF"/>
<stop offset="0.71" stop-color="#CDFFFF"/>
<stop offset="1" stop-color="#BEFFFF"/>
</radialGradient>
<radialGradient id="paint89_radial_618_871" cx="0" cy="0" r="1" gradientUnits="userSpaceOnUse" gradientTransform="translate(1239.02 756.078) scale(4.20653 4.22051)">
<stop stop-color="white"/>
<stop offset="0.16" stop-color="#F3FFFF"/>
<stop offset="0.71" stop-color="#CDFFFF"/>
<stop offset="1" stop-color="#BEFFFF"/>
</radialGradient>
<linearGradient id="paint90_linear_618_871" x1="1238.36" y1="951.803" x2="1238.36" y2="953.464" gradientUnits="userSpaceOnUse">
<stop stop-color="white"/>
<stop offset="0.16" stop-color="#F3FFFF"/>
<stop offset="0.71" stop-color="#CDFFFF"/>
<stop offset="1" stop-color="#BEFFFF"/>
</linearGradient>
<radialGradient id="paint91_radial_618_871" cx="0" cy="0" r="1" gradientUnits="userSpaceOnUse" gradientTransform="translate(1272.32 930.041) scale(7.06401 7.08751)">
<stop stop-color="white"/>
<stop offset="0.16" stop-color="#F3FFFF"/>
<stop offset="0.71" stop-color="#CDFFFF"/>
<stop offset="1" stop-color="#BEFFFF"/>
</radialGradient>
<radialGradient id="paint92_radial_618_871" cx="0" cy="0" r="1" gradientUnits="userSpaceOnUse" gradientTransform="translate(1195.25 949.569) scale(8.37625 8.40411)">
<stop stop-color="white"/>
<stop offset="0.16" stop-color="#F3FFFF"/>
<stop offset="0.71" stop-color="#CDFFFF"/>
<stop offset="1" stop-color="#BEFFFF"/>
</radialGradient>
<linearGradient id="paint93_linear_618_871" x1="1238.55" y1="928.976" x2="1238.55" y2="930.551" gradientUnits="userSpaceOnUse">
<stop stop-color="white"/>
<stop offset="0.16" stop-color="#F3FFFF"/>
<stop offset="0.71" stop-color="#CDFFFF"/>
<stop offset="1" stop-color="#BEFFFF"/>
</linearGradient>
<linearGradient id="paint94_linear_618_871" x1="1238.88" y1="911.165" x2="1238.88" y2="912.642" gradientUnits="userSpaceOnUse">
<stop stop-color="white"/>
<stop offset="0.16" stop-color="#F3FFFF"/>
<stop offset="0.71" stop-color="#CDFFFF"/>
<stop offset="1" stop-color="#BEFFFF"/>
</linearGradient>
<linearGradient id="paint95_linear_618_871" x1="1239.04" y1="897.04" x2="1239.04" y2="898.996" gradientUnits="userSpaceOnUse">
<stop stop-color="white"/>
<stop offset="0.16" stop-color="#F3FFFF"/>
<stop offset="0.71" stop-color="#CDFFFF"/>
<stop offset="1" stop-color="#BEFFFF"/>
</linearGradient>
<radialGradient id="paint96_radial_618_871" cx="0" cy="0" r="1" gradientUnits="userSpaceOnUse" gradientTransform="translate(1275.24 950.576) scale(8.37626 8.40409)">
<stop stop-color="white"/>
<stop offset="0.16" stop-color="#F3FFFF"/>
<stop offset="0.71" stop-color="#CDFFFF"/>
<stop offset="1" stop-color="#BEFFFF"/>
</radialGradient>
<radialGradient id="paint97_radial_618_871" cx="0" cy="0" r="1" gradientUnits="userSpaceOnUse" gradientTransform="translate(1269.57 927.827) scale(7.06402 7.08752)">
<stop stop-color="white"/>
<stop offset="0.16" stop-color="#F3FFFF"/>
<stop offset="0.71" stop-color="#CDFFFF"/>
<stop offset="1" stop-color="#BEFFFF"/>
</radialGradient>
<radialGradient id="paint98_radial_618_871" cx="0" cy="0" r="1" gradientUnits="userSpaceOnUse" gradientTransform="translate(1202.23 926.978) scale(7.06402 7.08752)">
<stop stop-color="white"/>
<stop offset="0.16" stop-color="#F3FFFF"/>
<stop offset="0.71" stop-color="#CDFFFF"/>
<stop offset="1" stop-color="#BEFFFF"/>
</radialGradient>
<radialGradient id="paint99_radial_618_871" cx="0" cy="0" r="1" gradientUnits="userSpaceOnUse" gradientTransform="translate(1249.8 895.994) scale(5.02821 5.04492)">
<stop stop-color="white"/>
<stop offset="0.16" stop-color="#F3FFFF"/>
<stop offset="0.71" stop-color="#CDFFFF"/>
<stop offset="1" stop-color="#BEFFFF"/>
</radialGradient>
<radialGradient id="paint100_radial_618_871" cx="0" cy="0" r="1" gradientUnits="userSpaceOnUse" gradientTransform="translate(1260.91 909.874) scale(5.60462 5.62326)">
<stop stop-color="white"/>
<stop offset="0.16" stop-color="#F3FFFF"/>
<stop offset="0.71" stop-color="#CDFFFF"/>
<stop offset="1" stop-color="#BEFFFF"/>
</radialGradient>
<radialGradient id="paint101_radial_618_871" cx="0" cy="0" r="1" gradientUnits="userSpaceOnUse" gradientTransform="translate(1224.35 895.773) scale(5.0282 5.04496)">
<stop stop-color="white"/>
<stop offset="0.16" stop-color="#F3FFFF"/>
<stop offset="0.71" stop-color="#CDFFFF"/>
<stop offset="1" stop-color="#BEFFFF"/>
</radialGradient>
<radialGradient id="paint102_radial_618_871" cx="0" cy="0" r="1" gradientUnits="userSpaceOnUse" gradientTransform="translate(1212.06 909.16) scale(5.60461 5.62325)">
<stop stop-color="white"/>
<stop offset="0.16" stop-color="#F3FFFF"/>
<stop offset="0.71" stop-color="#CDFFFF"/>
<stop offset="1" stop-color="#BEFFFF"/>
</radialGradient>
<clipPath id="clip0_618_871">
<rect width="248" height="260" fill="white" transform="translate(613 309)"/>
</clipPath>
<clipPath id="clip1_618_871">
<rect width="100" height="278" fill="white" transform="translate(1125 80)"/>
</clipPath>
<clipPath id="clip2_618_871">
<rect width="100" height="278" fill="white" transform="translate(1190 683)"/>
</clipPath>
</defs>
</svg>
